<svg xmlns="http://www.w3.org/2000/svg" width="50" height="50" viewBox="0 0 50 50">
  <path d="M39.393,29.258275 C39.565,27.958275 38.934,26.678275 37.797,26.021275 C36.66,25.364275 35.238,25.459275 34.195,26.258275 C34.369,24.957275 33.738,23.678275 32.601,23.022275 C31.953,22.649275 31.217,22.544275 30.507,22.649275 L24.146,33.664275 C26.935,34.601275 29.377,36.447275 31,39.000275 L9,39.000275 C11.393,35.238275 15.542,32.961275 20,32.961275 C20.722,32.961275 21.43,33.041275 22.129,33.158275 L28.773,21.648275 C28.511,20.980275 28.052,20.394275 27.406,20.021275 C26.267,19.365275 24.846,19.458275 23.803,20.258275 C23.976,18.957275 23.346,17.679275 22.208,17.021275 C21.07,16.365275 19.649,16.458275 18.606,17.257275 C21.751,11.812275 28.52,9.77327499 34.108,12.409275 L34.634,11.499275 C34.909,11.021275 35.52,10.858275 35.999,11.134275 C36.478,11.410275 36.642,12.021275 36.364,12.499275 L35.838,13.409275 C40.918,16.928275 42.535,23.811275 39.391,29.257275 L39.393,29.258275 Z"/>
</svg>
