<svg xmlns="http://www.w3.org/2000/svg" width="50" height="50" viewBox="0 0 50 50">
  <path d="M18.5332009,26.3644714 C22.4900438,26.3644714 25.6969059,22.4772135 25.6969059,17.6822357 C25.6969059,12.887258 24.6441551,9 18.5332009,9 C12.4222466,9 11.3694958,12.887258 11.3694958,17.6822357 C11.3694958,22.4772135 14.5777468,26.3644714 18.5332009,26.3644714 Z M5.00160371,39.6213377 C5.00021486,39.3289272 4.998826,39.5395736 5.00160371,39.6213377 Z M32.064798,39.8499999 C32.0689646,39.7696216 32.0661869,39.2942814 32.064798,39.8499999 Z M20.6289804,39.7100309 C20.6275916,39.4467229 20.6262027,39.635196 20.6289804,39.7100309 Z M44.9977994,39.915134 C45.001966,39.8430707 44.9991883,39.4148487 44.9977994,39.915134 Z M19.9817748,39.1501549 C20.1109381,32.2861304 20.5914814,29.999508 26.841321,28.6358496 C25.4955222,27.9540204 24.8233172,27.4578927 22.4567113,27.0324423 C22.4567113,27.0324423 21.2789637,28.5305264 18.5345897,28.5305264 C15.7902157,28.5305264 14.6110793,27.0324423 14.6110793,27.0324423 C6.33490282,28.5222114 5.17521037,30.8684245 5.02382536,39.0018709 C5.01132568,39.6656843 5.00577027,39.7003301 5.00299256,39.6241093 C5.00299256,39.7682358 5.00438142,40.0357013 5.00438142,40.5013408 L19.9651086,40.5013408 L19.9817748,39.1501549 Z M33.0272733,29.982878 C35.992475,29.982878 38.39658,27.0698598 38.39658,23.4750123 C38.39658,19.8801648 37.6077113,16.9671465 33.0272733,16.9671465 C28.4468353,16.9671465 27.6565778,19.8815507 27.6565778,23.4750123 C27.6565778,27.0698598 30.0606828,29.982878 33.0272733,29.982878 Z M22.8830892,39.9206773 C22.8817004,39.7017159 22.8817004,39.8597007 22.8830892,39.9206773 Z M43.1686797,40.0925204 C43.1714574,40.0315438 43.1686797,39.6753851 43.1686797,40.0925204 Z M43.1686797,40.5789474 C43.1686797,40.3544426 43.1686797,40.1978436 43.1686797,40.0925204 C43.1672908,40.1285521 43.1631243,40.0592605 43.1575689,39.6587551 C43.0589603,33.3975674 42.2395369,31.6126162 35.9674756,30.4831633 C35.9674756,30.4831633 35.084165,31.605687 33.0272733,31.605687 C30.9703817,31.605687 30.087071,30.4831633 30.087071,30.4831633 C23.8830636,31.6001437 23.0150303,33.3573783 22.8997555,39.4550378 C22.8900335,39.9525514 22.8858669,39.9788822 22.8844781,39.9206773 C22.8844781,40.0287722 22.8844781,40.2297178 22.8844781,40.5789474 L43.1686797,40.5789474 Z"/>
</svg>
