<svg xmlns="http://www.w3.org/2000/svg" width="515" height="512" viewBox="0 0 515 512">
  <path fill="#000" d="M182.721 354.869c-1.167 0-2.333-0.241-3.417-0.683l-161.887-68.031c-2.762-1.166-4.727-3.658-5.177-6.571s0.675-5.888 2.947-7.798l33.931-28.459c2.047-1.729 4.789-2.413 7.449-1.869l110.915 22.851 58.549-38.868-184.462-24.077c-3.499-0.463-6.364-2.935-7.264-6.27s0.328-6.893 3.131-9.004l46.76-35.049c1.514-1.147 3.376-1.749 5.279-1.749h0.020l258.112 0.302 76.188-53.219c0.163-0.1 0.307-0.2 0.471-0.302 12.094-7.356 23.964-11.074 35.28-11.074 16.986 0 31.37 8.722 38.45 23.333 10.744 22.147 3.541 42.867-20.239 58.364l-290.258 186.786c-1.433 0.905-3.111 1.387-4.769 1.387l-0.008-0.001zM37.142 275.829l144.7 60.813 286.287-184.233c21.732-14.168 18.459-27.754 14.099-36.737-4.175-8.623-12.463-13.586-22.714-13.586-7.837 0-16.8 2.894-25.887 8.382l-78.214 54.643c-1.473 1.024-3.233 1.588-5.054 1.588h-0.020l-257.945-0.302-27.668 20.74 186.285 24.317c3.582 0.463 6.507 3.054 7.325 6.511s-0.613 7.054-3.601 9.044l-80.566 53.482c-1.964 1.307-4.357 1.769-6.672 1.286l-110.323-22.73-20.031 16.782zM363.154 427h-327.913c-4.809 0-8.718-3.839-8.718-8.541 0-4.723 3.888-8.562 8.718-8.562h327.913c4.809 0 8.697 3.839 8.697 8.562 0.020 4.703-3.888 8.541-8.697 8.541z"></path>
</svg>
