<svg xmlns="http://www.w3.org/2000/svg" width="24" height="17" viewBox="0 0 24 17">
  <path fill-rule="evenodd" d="M8.35659574,13.2366448 C8.29974638,13.2366448 8.24289957,13.2248923 8.19004085,13.2033432 L0.300168255,9.88772525 C0.165528255,9.83091618 0.0697835745,9.7094597 0.0478414468,9.56744704 C0.0258993191,9.42543439 0.0807546383,9.28046794 0.191458468,9.187416 L1.84505872,7.80048824 C1.94479404,7.71625254 2.07843574,7.68295093 2.20809702,7.70939713 L7.61371404,8.82306161 L10.4671609,6.92874878 L1.47711855,5.75533146 C1.30657302,5.73280442 1.16695685,5.61232836 1.12306749,5.44972191 C1.07918323,5.287128 1.13902494,5.11377206 1.27566153,5.01091594 L3.55458894,3.30270699 C3.62839149,3.24687582 3.71914979,3.21749337 3.81189957,3.21749337 L3.81289787,3.21749337 L16.3924723,3.2321871 L20.1055787,0.638467701 C20.1135574,0.633570627 20.1205379,0.628671045 20.1285166,0.62377397 C20.7179464,0.26528203 21.2963974,0.0840927761 21.8479379,0.0840927761 C22.6757336,0.0840927761 23.3768655,0.509182925 23.7219294,1.22127725 C24.2455379,2.30066472 23.8944689,3.31049516 22.7355549,4.06574293 L8.58934213,13.1690862 C8.51952766,13.2131624 8.43774638,13.2366699 8.35696085,13.2366699 L8.35659574,13.2366448 Z M1.26153191,9.38442985 L2.23778298,8.56647045 L7.61454894,9.67426746 C7.72723915,9.69777493 7.84392766,9.67524788 7.93967234,9.6115809 L11.8662255,7.00507343 C12.0118366,6.90810985 12.0816511,6.73278054 12.0417574,6.56431164 C12.0018766,6.39584776 11.8592528,6.26949421 11.6847191,6.24696716 L2.60582553,5.06178985 L3.95421702,4.05098149 L16.5256213,4.06567272 L16.5266196,4.06567272 C16.6153813,4.06567272 16.7011532,4.0382486 16.7729617,3.98829493 L20.5848766,1.32511881 C21.0277021,1.05772299 21.4645277,0.916678209 21.8465106,0.916678209 C22.3461702,0.916678209 22.7500902,1.15859821 22.9535489,1.57879881 C23.1659745,2.01662687 23.3255489,2.67874746 22.266383,3.36927761 L8.31370213,12.3482507 L1.26153191,9.38442985 Z M17.1502979,16.7521075 L1.16884979,16.7521075 C0.934474468,16.7521075 0.743973191,16.5650282 0.743973191,16.3358185 C0.743973191,16.105641 0.933468511,15.9185516 1.16884979,15.9185516 L17.1502979,15.9185516 C17.3846732,15.9185516 17.5741787,16.1056309 17.5741787,16.3358185 C17.5751745,16.5650156 17.3846834,16.7521075 17.1502979,16.7521075 Z"/>
</svg>
