<!-- Generated by IcoMoon.io -->
<svg version="1.1" xmlns="http://www.w3.org/2000/svg" width="512" height="512" viewBox="0 0 512 512">
<title></title>
<g id="icomoon-ignore">
</g>
<path d="M176.808 260.392c-0.13-0.26-0.297-0.519-0.407-0.796-0.13-0.296-0.185-0.611-0.278-0.908-0.074-0.278-0.185-0.555-0.241-0.834-0.055-0.296-0.074-0.611-0.111-0.926-0.037-0.296-0.074-0.592-0.074-0.889s0.037-0.593 0.074-0.889c0.037-0.315 0.037-0.611 0.111-0.926 0.055-0.278 0.148-0.555 0.241-0.833 0.093-0.315 0.167-0.611 0.278-0.907 0.111-0.278 0.26-0.537 0.407-0.797 0.148-0.278 0.278-0.574 0.463-0.852 0.167-0.26 0.389-0.5 0.593-0.741 0.167-0.222 0.315-0.445 0.518-0.648l115.162-118.532c3.649-3.76 9.649-3.853 13.409-0.185 3.76 3.649 3.853 9.649 0.185 13.409l-108.737 111.885 108.756 111.918c3.649 3.76 3.556 9.76-0.185 13.409-1.852 1.796-4.241 2.685-6.611 2.685-2.463 0-4.945-0.963-6.797-2.87l-115.161-118.533c-0.185-0.204-0.333-0.426-0.518-0.648-0.203-0.241-0.426-0.481-0.593-0.741-0.185-0.278-0.333-0.574-0.482-0.852l-0 0.001z"></path>
<path d="M256 22.756c-128.597 0-233.244 104.647-233.244 233.244s104.647 233.245 233.244 233.245c128.597 0 233.245-104.647 233.245-233.245s-104.647-233.244-233.245-233.244zM256 0c141.38 0 256 114.62 256 256s-114.62 256-256 256c-141.381 0-256-114.62-256-256s114.62-256 256-256z"></path>
</svg>
