<svg version="1.1" xmlns="http://www.w3.org/2000/svg" width="512" height="512" viewBox="0 0 512 512">
  <path fill="#000" d="M249.866 163.123c0.364-0.182 0.73-0.418 1.121-0.575 0.418-0.182 0.86-0.262 1.278-0.392 0.392-0.105 0.783-0.262 1.173-0.339 0.418-0.078 0.86-0.105 1.304-0.156 0.418-0.052 0.834-0.105 1.252-0.105s0.834 0.052 1.252 0.105c0.445 0.052 0.86 0.052 1.303 0.156 0.392 0.078 0.783 0.208 1.173 0.339 0.445 0.131 0.86 0.235 1.278 0.392 0.392 0.156 0.757 0.364 1.122 0.575 0.392 0.208 0.808 0.392 1.2 0.651 0.364 0.235 0.704 0.547 1.043 0.834 0.313 0.235 0.626 0.445 0.913 0.73l166.907 162.162c5.293 5.137 5.425 13.587 0.262 18.882-5.137 5.293-13.587 5.425-18.882 0.262l-157.548-153.114-157.594 153.142c-5.293 5.137-13.743 5.007-18.882-0.262-2.531-2.607-3.782-5.971-3.782-9.31 0-3.469 1.356-6.964 4.041-9.571l166.907-162.162c0.287-0.262 0.601-0.47 0.913-0.73 0.339-0.287 0.677-0.601 1.043-0.834 0.392-0.262 0.808-0.47 1.2-0.677l-0.001-0.001z"></path>
</svg>
