<svg version="1.1" xmlns="http://www.w3.org/2000/svg" width="512" height="512" viewBox="0 0 512 512">
  <path fill="#000" d="M262.134 348.877c-0.364 0.182-0.73 0.418-1.122 0.575-0.418 0.182-0.86 0.262-1.278 0.392-0.392 0.104-0.783 0.262-1.173 0.339-0.418 0.079-0.86 0.104-1.303 0.156-0.418 0.052-0.834 0.104-1.252 0.104s-0.834-0.052-1.252-0.104c-0.445-0.052-0.86-0.052-1.304-0.156-0.392-0.079-0.783-0.209-1.173-0.339-0.445-0.131-0.86-0.235-1.278-0.392-0.392-0.156-0.757-0.364-1.121-0.575-0.392-0.209-0.808-0.392-1.2-0.651-0.364-0.235-0.703-0.547-1.043-0.834-0.313-0.235-0.626-0.445-0.913-0.73l-166.907-162.162c-5.293-5.137-5.424-13.588-0.261-18.881 5.136-5.293 13.588-5.424 18.882-0.262l157.548 153.115 157.594-153.142c5.293-5.137 13.743-5.006 18.882 0.262 2.531 2.607 3.783 5.971 3.783 9.31 0 3.469-1.356 6.964-4.041 9.571l-166.907 162.162c-0.288 0.262-0.601 0.469-0.913 0.73-0.339 0.288-0.677 0.601-1.043 0.834-0.392 0.262-0.808 0.469-1.2 0.677l0.001 0.001z"></path>
</svg>
