<svg xmlns="http://www.w3.org/2000/svg" xmlns:xlink="http://www.w3.org/1999/xlink" width="50" height="50" viewBox="0 0 50 50">
  <defs>
    <path id="bars-a" d="M36.884797,16.8411072 L13.115203,16.8411072 C11.9518414,16.8411072 11,16.1909582 11,15.3963316 L11,12.4447756 C11,11.650149 11.9518414,11 13.115203,11 L36.884797,11 C38.0481586,11 39,11.650149 39,12.4447756 L39,15.3963316 C39,16.1909582 38.0481586,16.8411072 36.884797,16.8411072 Z M36.884797,27.9205536 L13.115203,27.9205536 C11.9518414,27.9205536 11,27.2704046 11,26.475778 L11,23.524222 C11,22.7295954 11.9518414,22.0794464 13.115203,22.0794464 L36.884797,22.0794464 C38.0481586,22.0794464 39,22.7295954 39,23.524222 L39,26.475778 C39,27.2704046 38.0481586,27.9205536 36.884797,27.9205536 Z M36.884797,39 L13.115203,39 C11.9518414,39 11,38.349851 11,37.5552244 L11,34.6036684 C11,33.8090418 11.9518414,33.1588928 13.115203,33.1588928 L36.884797,33.1588928 C38.0481586,33.1588928 39,33.8090418 39,34.6036684 L39,37.5552244 C39,38.349851 38.0481586,39 36.884797,39 Z"/>
  </defs>
  <g fill="none" fill-rule="evenodd">
    <use fill="#000" xlink:href="#bars-a"/>
  </g>
</svg>
