<svg width="21px" height="17px" viewBox="0 0 21 17" version="1.1" xmlns="http://www.w3.org/2000/svg">
  <path d="M19.739685,1.72958 L0.839685,1.72958 C0.376635,1.72958 -0.000315,1.35368 -0.000315,0.88958 C-0.000315,0.42653 0.376635,0.04958 0.839685,0.04958 L19.739685,0.04958 C20.203785,0.04958 20.579685,0.42653 20.579685,0.88958 C20.579685,1.35368 20.203785,1.72958 19.739685,1.72958 Z M0.839685,16.42958 C0.376635,16.42958 -0.000315,16.05368 -0.000315,15.58958 C-0.000315,15.12653 0.376635,14.74958 0.839685,14.74958 L19.739685,14.74958 C20.203785,14.74958 20.579685,15.12653 20.579685,15.58958 C20.579685,16.05368 20.203785,16.42958 19.739685,16.42958 L0.839685,16.42958 Z M19.739685,9.07958 L0.839685,9.07958 C0.376635,9.07958 -0.000315,8.70368 -0.000315,8.23958 C-0.000315,7.77653 0.376635,7.39958 0.839685,7.39958 L19.739685,7.39958 C20.203785,7.39958 20.579685,7.77653 20.579685,8.23958 C20.579685,8.70368 20.203785,9.07958 19.739685,9.07958 Z" id="burger-menu-bar" fill="#666666"></path>
</svg>
