<svg xmlns="http://www.w3.org/2000/svg" width="50" height="50" viewBox="0 0 50 50">
  <path d="M21.277,18.064 C20.845,18.002 20.419,17.957 20.003,17.924 C19.063,19.886 18.43,22.018 18.158,24.267 C21.036,24.257 25.826,25.445 27.354,33.026 C28.106,36.778 29.903,38.69 32.915,38.901 C35.401,37.485 37.466,35.419 38.888,32.94 C36.425,25.277 29.777,19.285 21.276,18.064 L21.277,18.064 Z M16.695,25.725 C14.502,26.058 12.971,26.926 12.148,28.3 C10.982,30.244 11.454,32.795 11.799,34.038 C14.024,37.281 17.416,39.665 21.369,40.581 C18.405,36.868 16.67,32.089 16.67,26.743 C16.669,26.402 16.68,26.064 16.695,25.725 Z M19.213,16.537 C19.819,15.402 20.518,14.324 21.309,13.314 C19.422,12.656 18.844,11.274 18.787,10.251 C14.926,11.883 11.833,14.985 10.222,18.862 C12.678,17.333 15.489,16.526 18.585,16.526 C18.792,16.528 19.004,16.533 19.213,16.537 Z M16.801,24.359 C17.052,22.07 17.658,19.886 18.561,17.864 C14.967,17.871 11.966,18.995 9.521,20.939 C9.18,22.234 9,23.593 9,24.998 C9,27.034 9.38,28.987 10.075,30.782 C10.137,29.729 10.393,28.625 10.994,27.615 C12.074,25.813 14.03,24.719 16.801,24.359 Z M22.253,12.195 C23.311,11.013 24.499,9.946 25.789,9.021 C25.526,9.008 25.261,9 25,9 C21.934,9 20.141,9.837 20.141,9.837 C20.109,10.026 19.918,11.661 22.252,12.195 L22.253,12.195 Z M37.982,15.649 L37.954,15.669 C34.957,11.924 30.119,13.873 30.069,13.892 C28.754,14.437 26.354,14.361 22.742,13.662 C21.97,14.587 21.278,15.584 20.677,16.642 C20.938,16.669 21.204,16.7 21.471,16.738 C27.573,17.613 32.965,20.816 36.66,25.747 C37.945,27.464 38.972,29.319 39.723,31.263 C40.546,29.34 40.998,27.22 40.998,24.999 C40.995,21.508 39.878,18.279 37.981,15.651 L37.982,15.649 Z M29.556,12.656 C30.673,12.191 32.582,11.796 34.559,12.173 C32.617,10.717 30.33,9.702 27.845,9.254 C26.357,10.162 24.996,11.253 23.787,12.497 C27.315,13.113 28.871,12.939 29.556,12.656 Z M26.043,33.29 C24.713,26.686 20.778,25.546 18.042,25.599 C18.02,25.976 18.01,26.355 18.01,26.736 C18.01,32.241 19.986,37.232 23.418,40.909 C23.938,40.957 24.467,40.986 25.003,40.986 C27.083,40.986 29.076,40.588 30.904,39.863 C28.384,39.029 26.755,36.831 26.043,33.289 L26.043,33.29 Z"/>
</svg>
