<svg xmlns="http://www.w3.org/2000/svg" width="50" height="50" viewBox="0 0 50 50">
  <path d="M45.1435407,23 C44.6705611,23 44.2870814,22.6114015 44.2870814,22.1321082 L44.2870814,18.035876 L1.71291857,18.035876 L1.71291857,22.1321082 C1.71291857,22.6114015 1.32943893,23 0.856459286,23 C0.383479645,23 0,22.6114015 0,22.1321082 L0,5.10580733 C0,4.62651409 0.383479645,4.23791555 0.856459286,4.23791555 C1.32943893,4.23791555 1.71291857,4.62651409 1.71291857,5.10580733 L1.71291857,8.13626844 L29.2990439,8.13626844 C29.7720236,8.13626844 30.1555032,8.52486699 30.1555032,9.00416022 L30.1555032,10.6002132 L34.5050317,10.6002132 C34.9002877,7.37404249 37.6227576,4.8686559 40.9117754,4.8686559 L44.2870814,4.8686559 L44.2870814,0.867891778 C44.2870814,0.388598543 44.6705611,0 45.1435407,0 C45.6165204,0 46,0.388598543 46,0.867891778 L46,22.1321082 C46,22.6114015 45.6165204,23 45.1435407,23 Z M30.1555032,16.3000924 L44.2870814,16.3000924 L44.2870814,12.3359968 L30.1555032,12.3359968 L30.1555032,16.3000924 Z M1.71291857,16.3000924 L28.4425846,16.3000924 L28.4425846,9.872052 L1.71291857,9.872052 L1.71291857,16.3000924 Z M36.2359359,10.6002132 L44.2870814,10.6002132 L44.2870814,6.60443946 L40.9117754,6.60443946 C38.568931,6.60443946 36.6174885,8.33479869 36.2359359,10.6002132 Z" transform="matrix(-1 0 0 1 48 15)"/>
</svg>
