<svg xmlns="http://www.w3.org/2000/svg" width="24" height="24" viewBox="0 0 24 24">
  <path fill-rule="evenodd" d="M17.7516,1.861872 C17.5594128,0.918744 16.724112,0.206256 15.724728,0.206256 C15.4959792,0.206256 15.31128,0.3909432 15.31128,0.619704 C15.31128,0.8484648 15.4959672,1.033152 15.724728,1.033152 C16.409112,1.033152 16.965984,1.590024 16.965984,2.274408 C16.965984,2.958792 16.409112,3.515664 15.724728,3.515664 C15.4959792,3.515664 15.31128,3.7003512 15.31128,3.929112 C15.31128,4.1578728 15.4959672,4.34256 15.724728,4.34256 C16.723176,4.34256 17.559408,3.630048 17.7516,2.686944 L23.17224,2.6897568 L23.17224,6.4135968 L0.82775976,6.4135968 L0.82775976,2.6897568 L7.86192,2.6897568 C8.0906712,2.6897568 8.275368,2.5050696 8.275368,2.2763088 C8.275368,2.047548 8.0906808,1.8628608 7.86192,1.8628608 L7.110048,1.8628608 C7.2816096,1.3819248 7.736304,1.0350528 8.275368,1.0350528 C8.959752,1.0350528 9.516624,1.5919248 9.516624,2.2763088 C9.516624,2.9606928 8.959752,3.5175648 8.275368,3.5175648 C8.0466192,3.5175648 7.86192,3.702252 7.86192,3.9310128 C7.86192,4.1597736 8.0466072,4.3444608 8.275368,4.3444608 C9.416304,4.3444608 10.344432,3.4163328 10.344432,2.2753968 C10.344432,1.1344608 9.416304,0.2063328 8.275368,0.2063328 C7.27692,0.2063328 6.440688,0.9188448 6.248496,1.8619488 L9.590148e-05,1.8619488 L9.590148e-05,23.7929077 L24.000096,23.7929077 L24.000096,1.8619488 L17.7516,1.861872 Z M23.17224,22.9660315 L0.82775976,22.9660315 L0.82775976,7.242192 L23.17224,7.242192 L23.17224,22.9660315 Z M10.75872,1.034064 C11.443104,1.034064 11.999976,1.590936 11.999976,2.27532 C11.999976,2.959704 11.443104,3.516576 10.75872,3.516576 C10.5299712,3.516576 10.345272,3.7012632 10.345272,3.930024 C10.345272,4.1587848 10.5299592,4.343472 10.75872,4.343472 C11.899656,4.343472 12.827784,3.415344 12.827784,2.274408 C12.827784,1.133472 11.899656,0.205344 10.75872,0.205344 C10.5299712,0.205344 10.345272,0.3900312 10.345272,0.618792 C10.3443336,0.8494176 10.5299592,1.034112 10.75872,1.034112 L10.75872,1.034064 Z M13.24128,1.034064 C13.925664,1.034064 14.482536,1.590936 14.482536,2.27532 C14.482536,2.959704 13.925664,3.516576 13.24128,3.516576 C13.0125312,3.516576 12.827832,3.7012632 12.827832,3.930024 C12.827832,4.1587848 13.0125192,4.343472 13.24128,4.343472 C14.382216,4.343472 15.310344,3.415344 15.310344,2.274408 C15.310344,1.133472 14.382216,0.205344 13.24128,0.205344 C13.0125312,0.205344 12.827832,0.3900312 12.827832,0.618792 C12.827832,0.8494176 13.0125192,1.034112 13.24128,1.034112 L13.24128,1.034064 Z M9.51744,10.13808 C9.51744,10.689336 8.689632,10.689336 8.689632,10.13808 C8.689632,9.585888 9.51744,9.585888 9.51744,10.13808 M12.41352,10.13808 C12.41352,10.689336 11.586648,10.689336 11.586648,10.13808 C11.586648,9.585888 12.41352,9.585888 12.41352,10.13808 M15.31032,10.13808 C15.31032,10.689336 14.482512,10.689336 14.482512,10.13808 C14.482512,9.585888 15.31032,9.585888 15.31032,10.13808 M18.20712,10.13808 C18.20712,10.689336 17.379312,10.689336 17.379312,10.13808 C17.379312,9.585888 18.20712,9.585888 18.20712,10.13808 M21.1032,10.13808 C21.1032,10.689336 20.276328,10.689336 20.276328,10.13808 C20.276328,9.585888 21.1032,9.585888 21.1032,10.13808 M3.72384,13.4484 C3.72384,13.999656 2.896968,13.999656 2.896968,13.4484 C2.896968,12.896208 3.72384,12.896208 3.72384,13.4484 M6.62064,13.4484 C6.62064,13.999656 5.792832,13.999656 5.792832,13.4484 C5.792832,12.896208 6.62064,12.896208 6.62064,13.4484 M9.51744,13.4484 C9.51744,13.999656 8.689632,13.999656 8.689632,13.4484 C8.689632,12.896208 9.51744,12.896208 9.51744,13.4484 M12.41352,13.4484 C12.41352,13.999656 11.586648,13.999656 11.586648,13.4484 C11.586648,12.896208 12.41352,12.896208 12.41352,13.4484 M15.31032,13.4484 C15.31032,13.999656 14.482512,13.999656 14.482512,13.4484 C14.482512,12.896208 15.31032,12.896208 15.31032,13.4484 M18.20712,13.4484 C18.20712,13.999656 17.379312,13.999656 17.379312,13.4484 C17.379312,12.896208 18.20712,12.896208 18.20712,13.4484 M21.1032,13.4484 C21.1032,13.999656 20.276328,13.999656 20.276328,13.4484 C20.276328,12.896208 21.1032,12.896208 21.1032,13.4484 M3.72384,16.34448 C3.72384,16.896672 2.896968,16.896672 2.896968,16.34448 C2.896968,15.793224 3.72384,15.793224 3.72384,16.34448 M6.62064,16.34448 C6.62064,16.896672 5.792832,16.896672 5.792832,16.34448 C5.792832,15.793224 6.62064,15.793224 6.62064,16.34448 M9.51744,16.34448 C9.51744,16.896672 8.689632,16.896672 8.689632,16.34448 C8.689632,15.793224 9.51744,15.793224 9.51744,16.34448 M12.41352,16.34448 C12.41352,16.896672 11.586648,16.896672 11.586648,16.34448 C11.586648,15.793224 12.41352,15.793224 12.41352,16.34448 M15.31032,16.34448 C15.31032,16.896672 14.482512,16.896672 14.482512,16.34448 C14.482512,15.793224 15.31032,15.793224 15.31032,16.34448 M18.20712,16.34448 C18.20712,16.896672 17.379312,16.896672 17.379312,16.34448 C17.379312,15.793224 18.20712,15.793224 18.20712,16.34448 M21.1032,16.34448 C21.1032,16.896672 20.276328,16.896672 20.276328,16.34448 C20.276328,15.793224 21.1032,15.793224 21.1032,16.34448 M3.72384,19.65552 C3.72384,20.206776 2.896968,20.206776 2.896968,19.65552 C2.896968,19.103328 3.72384,19.103328 3.72384,19.65552 M6.62064,19.65552 C6.62064,20.206776 5.792832,20.206776 5.792832,19.65552 C5.792832,19.103328 6.62064,19.103328 6.62064,19.65552 M9.51744,19.65552 C9.51744,20.206776 8.689632,20.206776 8.689632,19.65552 C8.689632,19.103328 9.51744,19.103328 9.51744,19.65552 M12.41352,19.65552 C12.41352,20.206776 11.586648,20.206776 11.586648,19.65552 C11.586648,19.103328 12.41352,19.103328 12.41352,19.65552 M15.31032,19.65552 C15.31032,20.206776 14.482512,20.206776 14.482512,19.65552 C14.482512,19.103328 15.31032,19.103328 15.31032,19.65552"/>
</svg>
