<svg xmlns="http://www.w3.org/2000/svg" width="512" height="512" viewBox="0 0 512 512">
  <path fill="#000" d="M378.701 39.72c-4.1-20.12-21.919-35.32-43.24-35.32-4.88 0-8.82 3.94-8.82 8.82s3.94 8.82 8.82 8.82c14.6 0 26.48 11.88 26.48 26.48s-11.88 26.48-26.48 26.48c-4.88 0-8.82 3.94-8.82 8.82s3.94 8.82 8.82 8.82c21.3 0 39.14-15.201 43.24-35.32l115.64 0.060v79.442h-476.682v-79.442h150.062c4.88 0 8.82-3.94 8.82-8.82s-3.94-8.82-8.82-8.82h-16.040c3.66-10.26 13.36-17.66 24.86-17.66 14.6 0 26.48 11.88 26.48 26.48s-11.88 26.48-26.48 26.48c-4.88 0-8.82 3.94-8.82 8.82s3.94 8.82 8.82 8.82c24.34 0 44.14-19.8 44.14-44.14s-19.8-44.14-44.14-44.14c-21.3 0-39.14 15.2-43.24 35.32h-133.299v467.861h512v-467.861l-133.301-0.002zM494.341 489.942h-476.682v-335.442h476.682v335.442zM229.519 22.060c14.6 0 26.48 11.88 26.48 26.48s-11.88 26.48-26.48 26.48c-4.88 0-8.82 3.94-8.82 8.82s3.94 8.82 8.82 8.82c24.34 0 44.14-19.8 44.14-44.14s-19.8-44.14-44.14-44.14c-4.88 0-8.82 3.94-8.82 8.82-0.020 4.92 3.94 8.86 8.82 8.86v-0.001zM282.481 22.060c14.6 0 26.48 11.88 26.48 26.48s-11.88 26.48-26.48 26.48c-4.88 0-8.82 3.94-8.82 8.82s3.94 8.82 8.82 8.82c24.34 0 44.14-19.8 44.14-44.14s-19.8-44.14-44.14-44.14c-4.88 0-8.82 3.94-8.82 8.82 0 4.92 3.94 8.86 8.82 8.86v-0.001zM203.038 216.279c0 11.76-17.66 11.76-17.66 0 0-11.78 17.66-11.78 17.66 0zM264.822 216.279c0 11.76-17.64 11.76-17.64 0 0-11.78 17.64-11.78 17.64 0zM326.62 216.279c0 11.76-17.66 11.76-17.66 0 0-11.78 17.66-11.78 17.66 0zM388.418 216.279c0 11.76-17.66 11.76-17.66 0 0-11.78 17.66-11.78 17.66 0zM450.202 216.279c0 11.76-17.64 11.76-17.64 0 0-11.78 17.64-11.78 17.64 0zM79.442 286.899c0 11.76-17.64 11.76-17.64 0 0-11.78 17.64-11.78 17.64 0zM141.24 286.899c0 11.76-17.66 11.76-17.66 0 0-11.78 17.66-11.78 17.66 0zM203.038 286.899c0 11.76-17.66 11.76-17.66 0 0-11.78 17.66-11.78 17.66 0zM264.822 286.899c0 11.76-17.64 11.76-17.64 0 0-11.78 17.64-11.78 17.64 0zM326.62 286.899c0 11.76-17.66 11.76-17.66 0 0-11.78 17.66-11.78 17.66 0zM388.418 286.899c0 11.76-17.66 11.76-17.66 0 0-11.78 17.66-11.78 17.66 0zM450.202 286.899c0 11.76-17.64 11.76-17.64 0 0-11.78 17.64-11.78 17.64 0zM79.442 348.682c0 11.78-17.64 11.78-17.64 0 0-11.76 17.64-11.76 17.64 0zM141.24 348.682c0 11.78-17.66 11.78-17.66 0 0-11.76 17.66-11.76 17.66 0zM203.038 348.682c0 11.78-17.66 11.78-17.66 0 0-11.76 17.66-11.76 17.66 0zM264.822 348.682c0 11.78-17.64 11.78-17.64 0 0-11.76 17.64-11.76 17.64 0zM326.62 348.682c0 11.78-17.66 11.78-17.66 0 0-11.76 17.66-11.76 17.66 0zM388.418 348.682c0 11.78-17.66 11.78-17.66 0 0-11.76 17.66-11.76 17.66 0zM450.202 348.682c0 11.78-17.64 11.78-17.64 0 0-11.76 17.64-11.76 17.64 0zM79.442 419.318c0 11.76-17.64 11.76-17.64 0 0-11.78 17.64-11.78 17.64 0zM141.24 419.318c0 11.76-17.66 11.76-17.66 0 0-11.78 17.66-11.78 17.66 0zM203.038 419.318c0 11.76-17.66 11.76-17.66 0 0-11.78 17.66-11.78 17.66 0zM264.822 419.318c0 11.76-17.64 11.76-17.64 0 0-11.78 17.64-11.78 17.64 0zM326.62 419.318c0 11.76-17.66 11.76-17.66 0 0-11.78 17.66-11.78 17.66 0z"></path>
</svg>
