<svg xmlns="http://www.w3.org/2000/svg" width="50" height="50" viewBox="0 0 50 50">
  <g>
    <path d="M12.2820442 11.5491713L12.9933702 11.5491713C14.0745856 11.5491713 14.9508287 10.6726519 14.9508287 9.59171271L14.9508287 4.19005525 14.9508287 2.16961326C14.9508287 1.08867403 14.0745856.212154696 12.9933702.212154696L12.2820442.212154696C11.201105.212154696 10.3248619 1.08867403 10.3248619 2.16961326L10.3248619 4.19005525 10.3248619 9.59171271C10.3248619 10.6726519 11.201105 11.5491713 12.2820442 11.5491713zM37.3895028 11.5008287L38.1005525 11.5008287C39.181768 11.5008287 40.058011 10.6240331 40.058011 9.54337017L40.058011 3.67734807 40.058011 2.12099448C40.058011 1.04005525 39.181768.163535912 38.1005525.163535912L37.3895028.163535912C36.3082873.163535912 35.431768 1.04005525 35.431768 2.12099448L35.431768 3.67734807 35.431768 9.54309392C35.4320442 10.6240331 36.3082873 11.5008287 37.3895028 11.5008287z"/>
    <path d="M46.6729282,4.19005525 L41.6491713,4.19005525 L41.6491713,10.0558011 C41.6491713,12.0124309 40.0571823,13.0917127 38.1008287,13.0917127 L37.3892265,13.0917127 C35.4325967,13.0917127 33.8406077,11.4997238 33.8406077,9.54281768 L33.8406077,4.19005525 L16.541989,4.19005525 L16.541989,9.59171271 C16.541989,11.5483425 14.95,13.1406077 12.9933702,13.1406077 L12.2820442,13.1406077 C10.3254144,13.1406077 8.73342541,11.5483425 8.73342541,9.59171271 L8.73342541,4.19005525 L3.31325967,4.19005525 C1.55856354,4.19005525 0.130939227,5.61740331 0.130939227,7.37237569 L0.130939227,45.8254144 C0.130939227,47.5803867 1.55856354,49.008011 3.31325967,49.008011 L46.6726519,49.008011 C48.4276243,49.008011 49.8549724,47.5803867 49.8549724,45.8254144 L49.8549724,7.37237569 C49.8555249,5.61767956 48.4279006,4.19005525 46.6729282,4.19005525 Z M46.6729282,45.8254144 L3.31381215,45.8254144 L3.31353591,16.7867403 L46.6734807,16.7867403 L46.6751381,45.8254144 C46.6751381,45.8254144 46.6743094,45.8254144 46.6729282,45.8254144 Z"/>
    <path d="M26.6361878 26.5270718L32.35 26.5270718C32.5765193 26.5270718 32.760221 26.3433702 32.760221 26.1168508L32.760221 21.169337C32.760221 20.9428177 32.5765193 20.759116 32.35 20.759116L26.6361878 20.759116C26.4096685 20.759116 26.2259669 20.9428177 26.2259669 21.169337L26.2259669 26.1168508C26.2259669 26.3433702 26.4096685 26.5270718 26.6361878 26.5270718zM35.9610497 26.5270718L41.6751381 26.5270718C41.9013812 26.5270718 42.0850829 26.3433702 42.0850829 26.1168508L42.0850829 21.169337C42.0850829 20.9428177 41.9013812 20.759116 41.6751381 20.759116L35.9610497 20.759116C35.7348066 20.759116 35.551105 20.9428177 35.551105 21.169337L35.551105 26.1168508C35.5508287 26.3433702 35.7345304 26.5270718 35.9610497 26.5270718zM7.98646409 34.6273481L13.7005525 34.6273481C13.9267956 34.6273481 14.1104972 34.4436464 14.1104972 34.2174033L14.1104972 29.269337C14.1104972 29.0430939 13.9267956 28.8593923 13.7005525 28.8593923L7.98646409 28.8593923C7.76022099 28.8593923 7.57651934 29.0430939 7.57651934 29.269337L7.57651934 34.2174033C7.57651934 34.4436464 7.76022099 34.6273481 7.98646409 34.6273481zM17.311326 34.6273481L23.0251381 34.6273481C23.2516575 34.6273481 23.4353591 34.4436464 23.4353591 34.2174033L23.4353591 29.269337C23.4353591 29.0430939 23.2516575 28.8593923 23.0251381 28.8593923L17.311326 28.8593923C17.0850829 28.8593923 16.9013812 29.0430939 16.9013812 29.269337L16.9013812 34.2174033C16.9013812 34.4436464 17.0850829 34.6273481 17.311326 34.6273481zM26.6361878 34.6273481L32.35 34.6273481C32.5765193 34.6273481 32.760221 34.4436464 32.760221 34.2174033L32.760221 29.269337C32.760221 29.0430939 32.5765193 28.8593923 32.35 28.8593923L26.6361878 28.8593923C26.4099448 28.8593923 26.2262431 29.0430939 26.2262431 29.269337L26.2262431 34.2174033C26.2259669 34.4436464 26.4099448 34.6273481 26.6361878 34.6273481zM35.9610497 34.6273481L41.6751381 34.6273481C41.9013812 34.6273481 42.0850829 34.4436464 42.0850829 34.2174033L42.0850829 29.269337C42.0850829 29.0430939 41.9013812 28.8593923 41.6751381 28.8593923L35.9610497 28.8593923C35.7348066 28.8593923 35.551105 29.0430939 35.551105 29.269337L35.551105 34.2174033C35.5508287 34.4436464 35.7345304 34.6273481 35.9610497 34.6273481zM13.7005525 36.959116L7.98674033 36.959116C7.76022099 36.959116 7.57651934 37.1428177 7.57651934 37.369337L7.57651934 42.3171271C7.57651934 42.5436464 7.76022099 42.7270718 7.98674033 42.7270718L13.7005525 42.7270718C13.9270718 42.7270718 14.1104972 42.5436464 14.1104972 42.3171271L14.1104972 37.369337C14.1104972 37.1428177 13.9267956 36.959116 13.7005525 36.959116zM23.0254144 36.959116L17.3116022 36.959116C17.0850829 36.959116 16.9013812 37.1428177 16.9013812 37.369337L16.9013812 42.3171271C16.9013812 42.5436464 17.0850829 42.7270718 17.3116022 42.7270718L23.0254144 42.7270718C23.2519337 42.7270718 23.4353591 42.5436464 23.4353591 42.3171271L23.4353591 37.369337C23.4353591 37.1428177 23.2519337 36.959116 23.0254144 36.959116zM32.35 36.959116L26.6361878 36.959116C26.4096685 36.959116 26.2259669 37.1428177 26.2259669 37.369337L26.2259669 42.3171271C26.2259669 42.5436464 26.4096685 42.7270718 26.6361878 42.7270718L32.35 42.7270718C32.5765193 42.7270718 32.7599448 42.5436464 32.7599448 42.3171271L32.7599448 37.369337C32.760221 37.1428177 32.5767956 36.959116 32.35 36.959116zM41.6748619 36.959116L35.9607735 36.959116C35.7345304 36.959116 35.5508287 37.1428177 35.5508287 37.369337L35.5508287 42.3171271C35.5508287 42.5436464 35.7345304 42.7270718 35.9607735 42.7270718L41.6748619 42.7270718C41.901105 42.7270718 42.0848066 42.5436464 42.0848066 42.3171271L42.0848066 37.369337C42.0850829 37.1428177 41.9013812 36.959116 41.6748619 36.959116z"/>
  </g>
</svg>
