<svg xmlns="http://www.w3.org/2000/svg" xmlns:xlink="http://www.w3.org/1999/xlink" width="50" height="50" viewBox="0 0 50 50">
  <defs>
    <path id="calendar-a" d="M14.7748346,14.8577908 C13.9052838,14.8577908 13.2003989,14.1758768 13.2003989,13.3349282 L13.2003989,9.13254947 L13.2003989,7.56068704 C13.2003989,6.71973849 13.9052838,6.03782442 14.7748346,6.03782442 L15.3470536,6.03782442 C16.2168265,6.03782442 16.9217115,6.71973849 16.9217115,7.56068704 L16.9217115,9.13254947 L16.9217115,13.3349282 C16.9217115,14.1758768 16.2168265,14.8577908 15.3470536,14.8577908 L14.7748346,14.8577908 Z M34.9722778,14.8201813 C34.1025049,14.8201813 33.3976199,14.1380523 33.3973977,13.2971038 L33.3973977,8.7336738 L33.3973977,7.52286262 C33.3973977,6.68191407 34.1025049,6 34.9722778,6 L35.5442747,6 C36.4140476,6 37.1189326,6.68191407 37.1189326,7.52286262 L37.1189326,8.7336738 L37.1189326,13.2973187 C37.1189326,14.1380523 36.4140476,14.8201813 35.5442747,14.8201813 L34.9722778,14.8201813 Z M42.4402363,9.13254947 C43.8520063,9.13254947 45.0004443,10.2432119 44.9999999,11.6083295 L44.9999999,41.524005 C44.9999999,42.8893376 43.851784,44 42.4400141,44 L7.55998577,44 C6.14843806,44 5,42.8893376 5,41.524005 L5,11.6083295 C5,10.242997 6.14843806,9.13254947 7.55998577,9.13254947 L11.9201838,9.13254947 L11.9201838,13.3349282 C11.9201838,14.8571461 13.2008433,16.0958958 14.7748346,16.0958958 L15.3470536,16.0958958 C16.9210448,16.0958958 18.2017044,14.8571461 18.2017044,13.3349282 L18.2017044,9.13254947 L32.1174048,9.13254947 L32.1174048,13.2968889 C32.1174048,14.8193217 33.3980644,16.0578564 34.9720556,16.0578564 L35.5444969,16.0578564 C37.1182659,16.0578564 38.3989255,15.2181973 38.3989255,13.6959795 L38.3989255,9.13254947 L42.4402363,9.13254947 Z M42.4402363,41.524005 C42.4413474,41.524005 42.4420141,41.524005 42.4420141,41.524005 L42.4406808,18.9325121 L7.56020799,18.9325121 L7.56043021,41.524005 L42.4402363,41.524005 Z M26.3218815,26.5102903 C26.1396603,26.5102903 25.9918833,26.3673742 25.9918833,26.1911468 L25.9918833,22.3420825 C25.9918833,22.1658551 26.1396603,22.022939 26.3218815,22.022939 L30.9183004,22.022939 C31.1005216,22.022939 31.2482985,22.1658551 31.2482985,22.3420825 L31.2482985,26.1911468 C31.2482985,26.3673742 31.1005216,26.5102903 30.9183004,26.5102903 L26.3218815,26.5102903 Z M33.8231731,26.5102903 C33.6409519,26.5102903 33.4931749,26.3673742 33.4933972,26.1911468 L33.4933972,22.3420825 C33.4933972,22.1658551 33.6411741,22.022939 33.8231731,22.022939 L38.4198142,22.022939 C38.6018132,22.022939 38.7495902,22.1658551 38.7495902,22.3420825 L38.7495902,26.1911468 C38.7495902,26.3673742 38.6018132,26.5102903 38.4198142,26.5102903 L33.8231731,26.5102903 Z M11.3192982,32.8121391 C11.1372992,32.8121391 10.9895223,32.669223 10.9895223,32.4932105 L10.9895223,28.6437164 C10.9895223,28.4677039 11.1372992,28.3247878 11.3192982,28.3247878 L15.9159393,28.3247878 C16.0979383,28.3247878 16.2457153,28.4677039 16.2457153,28.6437164 L16.2457153,32.4932105 C16.2457153,32.669223 16.0979383,32.8121391 15.9159393,32.8121391 L11.3192982,32.8121391 Z M18.8205898,32.8121391 C18.6385909,32.8121391 18.4908139,32.669223 18.4908139,32.4932105 L18.4908139,28.6437164 C18.4908139,28.4677039 18.6385909,28.3247878 18.8205898,28.3247878 L23.4170087,28.3247878 C23.5992299,28.3247878 23.7470069,28.4677039 23.7470069,28.6437164 L23.7470069,32.4932105 C23.7470069,32.669223 23.5992299,32.8121391 23.4170087,32.8121391 L18.8205898,32.8121391 Z M26.3218815,32.8121391 C26.1398825,32.8121391 25.9918833,32.669223 25.9921055,32.4932105 L25.9921055,28.6437164 C25.9921055,28.4677039 26.1398825,28.3247878 26.3218815,28.3247878 L30.9183004,28.3247878 C31.1005216,28.3247878 31.2482985,28.4677039 31.2482985,28.6437164 L31.2482985,32.4932105 C31.2482985,32.669223 31.1005216,32.8121391 30.9183004,32.8121391 L26.3218815,32.8121391 Z M33.8231731,32.8121391 C33.6409519,32.8121391 33.4931749,32.669223 33.4933972,32.4932105 L33.4933972,28.6437164 C33.4933972,28.4677039 33.6411741,28.3247878 33.8231731,28.3247878 L38.4198142,28.3247878 C38.6018132,28.3247878 38.7495902,28.4677039 38.7495902,28.6437164 L38.7495902,32.4932105 C38.7495902,32.669223 38.6018132,32.8121391 38.4198142,32.8121391 L33.8231731,32.8121391 Z M15.9159393,34.6262068 C16.0979383,34.6262068 16.2457153,34.7691229 16.2457153,34.9453503 L16.2457153,38.7946295 C16.2457153,38.9708569 16.0981605,39.1135581 15.9159393,39.1135581 L11.3195204,39.1135581 C11.1372992,39.1135581 10.9895223,38.9708569 10.9895223,38.7946295 L10.9895223,34.9453503 C10.9895223,34.7691229 11.1372992,34.6262068 11.3195204,34.6262068 L15.9159393,34.6262068 Z M23.417231,34.6262068 C23.5994522,34.6262068 23.7470069,34.7691229 23.7470069,34.9453503 L23.7470069,38.7946295 C23.7470069,38.9708569 23.5994522,39.1135581 23.417231,39.1135581 L18.8208121,39.1135581 C18.6385909,39.1135581 18.4908139,38.9708569 18.4908139,38.7946295 L18.4908139,34.9453503 C18.4908139,34.7691229 18.6385909,34.6262068 18.8208121,34.6262068 L23.417231,34.6262068 Z M30.9183004,34.6262068 C31.1007438,34.6262068 31.2482985,34.7691229 31.2480763,34.9453503 L31.2480763,38.7946295 C31.2480763,38.9708569 31.1005216,39.1135581 30.9183004,39.1135581 L26.3218815,39.1135581 C26.1396603,39.1135581 25.9918833,38.9708569 25.9918833,38.7946295 L25.9918833,34.9453503 C25.9918833,34.7691229 26.1396603,34.6262068 26.3218815,34.6262068 L30.9183004,34.6262068 Z M38.419592,34.6262068 C38.6018132,34.6262068 38.7495902,34.7691229 38.749368,34.9453503 L38.749368,38.7946295 C38.749368,38.9708569 38.601591,39.1135581 38.419592,39.1135581 L33.8229509,39.1135581 C33.6409519,39.1135581 33.4931749,38.9708569 33.4931749,38.7946295 L33.4931749,34.9453503 C33.4931749,34.7691229 33.6409519,34.6262068 33.8229509,34.6262068 L38.419592,34.6262068 Z"/>
  </defs>
  <g fill="none" fill-rule="evenodd">
    <use fill="#000" fill-rule="nonzero" xlink:href="#calendar-a"/>
  </g>
</svg>
