<svg xmlns="http://www.w3.org/2000/svg" xmlns:xlink="http://www.w3.org/1999/xlink" width="50" height="50" viewBox="0 0 50 50">
  <defs>
    <path id="calendar-a" d="M14.7748346,14.3239903 C13.9052838,14.3239903 13.2003989,13.6061861 13.2003989,12.7209771 L13.2003989,8.2974205 L13.2003989,6.64282846 C13.2003989,5.75761946 13.9052838,5.03981518 14.7748346,5.03981518 L15.3470536,5.03981518 C16.2168265,5.03981518 16.9217115,5.75761946 16.9217115,6.64282846 L16.9217115,8.2974205 L16.9217115,12.7209771 C16.9217115,13.6061861 16.2168265,14.3239903 15.3470536,14.3239903 L14.7748346,14.3239903 Z M34.9722778,14.2844014 C34.1025049,14.2844014 33.3976199,13.5663709 33.3973977,12.6811619 L33.3973977,7.87755137 L33.3973977,6.60301328 C33.3973977,5.71780428 34.1025049,5 34.9722778,5 L35.5442747,5 C36.4140476,5 37.1189326,5.71780428 37.1189326,6.60301328 L37.1189326,7.87755137 L37.1189326,12.6813881 C37.1189326,13.5663709 36.4140476,14.2844014 35.5442747,14.2844014 L34.9722778,14.2844014 Z M42.4402363,8.2974205 C43.8520063,8.2974205 45.0004443,9.46653885 44.9999999,10.9035048 L44.9999999,42.3936895 C44.9999999,43.8308816 43.851784,45 42.4400141,45 L7.55998577,45 C6.14843806,45 5,43.8308816 5,42.3936895 L5,10.9035048 C5,9.46631263 6.14843806,8.2974205 7.55998577,8.2974205 L11.9201838,8.2974205 L11.9201838,12.7209771 C11.9201838,14.3233117 13.2008433,15.6272587 14.7748346,15.6272587 L15.3470536,15.6272587 C16.9210448,15.6272587 18.2017044,14.3233117 18.2017044,12.7209771 L18.2017044,8.2974205 L32.1174048,8.2974205 L32.1174048,12.6809357 C32.1174048,14.2834965 33.3980644,15.5872173 34.9720556,15.5872173 L35.5444969,15.5872173 C37.1182659,15.5872173 38.3989255,14.7033656 38.3989255,13.101031 L38.3989255,8.2974205 L42.4402363,8.2974205 Z M42.4402363,42.3936895 C42.4413474,42.3936895 42.4420141,42.3936895 42.4420141,42.3936895 L42.4406808,18.6131707 L7.56020799,18.6131707 L7.56043021,42.3936895 L42.4402363,42.3936895 Z M26.3218815,26.5897793 C26.1396603,26.5897793 25.9918833,26.4393412 25.9918833,26.2538387 L25.9918833,22.2021921 C25.9918833,22.0166896 26.1396603,21.8662515 26.3218815,21.8662515 L30.9183004,21.8662515 C31.1005216,21.8662515 31.2482985,22.0166896 31.2482985,22.2021921 L31.2482985,26.2538387 C31.2482985,26.4393412 31.1005216,26.5897793 30.9183004,26.5897793 L26.3218815,26.5897793 Z M33.8231731,26.5897793 C33.6409519,26.5897793 33.4931749,26.4393412 33.4933972,26.2538387 L33.4933972,22.2021921 C33.4933972,22.0166896 33.6411741,21.8662515 33.8231731,21.8662515 L38.4198142,21.8662515 C38.6018132,21.8662515 38.7495902,22.0166896 38.7495902,22.2021921 L38.7495902,26.2538387 C38.7495902,26.4393412 38.6018132,26.5897793 38.4198142,26.5897793 L33.8231731,26.5897793 Z M11.3192982,33.2233043 C11.1372992,33.2233043 10.9895223,33.0728663 10.9895223,32.88759 L10.9895223,28.8354909 C10.9895223,28.6502146 11.1372992,28.4997766 11.3192982,28.4997766 L15.9159393,28.4997766 C16.0979383,28.4997766 16.2457153,28.6502146 16.2457153,28.8354909 L16.2457153,32.88759 C16.2457153,33.0728663 16.0979383,33.2233043 15.9159393,33.2233043 L11.3192982,33.2233043 Z M18.8205898,33.2233043 C18.6385909,33.2233043 18.4908139,33.0728663 18.4908139,32.88759 L18.4908139,28.8354909 C18.4908139,28.6502146 18.6385909,28.4997766 18.8205898,28.4997766 L23.4170087,28.4997766 C23.5992299,28.4997766 23.7470069,28.6502146 23.7470069,28.8354909 L23.7470069,32.88759 C23.7470069,33.0728663 23.5992299,33.2233043 23.4170087,33.2233043 L18.8205898,33.2233043 Z M26.3218815,33.2233043 C26.1398825,33.2233043 25.9918833,33.0728663 25.9921055,32.88759 L25.9921055,28.8354909 C25.9921055,28.6502146 26.1398825,28.4997766 26.3218815,28.4997766 L30.9183004,28.4997766 C31.1005216,28.4997766 31.2482985,28.6502146 31.2482985,28.8354909 L31.2482985,32.88759 C31.2482985,33.0728663 31.1005216,33.2233043 30.9183004,33.2233043 L26.3218815,33.2233043 Z M33.8231731,33.2233043 C33.6409519,33.2233043 33.4931749,33.0728663 33.4933972,32.88759 L33.4933972,28.8354909 C33.4933972,28.6502146 33.6411741,28.4997766 33.8231731,28.4997766 L38.4198142,28.4997766 C38.6018132,28.4997766 38.7495902,28.6502146 38.7495902,28.8354909 L38.7495902,32.88759 C38.7495902,33.0728663 38.6018132,33.2233043 38.4198142,33.2233043 L33.8231731,33.2233043 Z M15.9159393,35.1328492 C16.0979383,35.1328492 16.2457153,35.2832872 16.2457153,35.4687898 L16.2457153,39.5206626 C16.2457153,39.7061651 16.0981605,39.8563769 15.9159393,39.8563769 L11.3195204,39.8563769 C11.1372992,39.8563769 10.9895223,39.7061651 10.9895223,39.5206626 L10.9895223,35.4687898 C10.9895223,35.2832872 11.1372992,35.1328492 11.3195204,35.1328492 L15.9159393,35.1328492 Z M23.417231,35.1328492 C23.5994522,35.1328492 23.7470069,35.2832872 23.7470069,35.4687898 L23.7470069,39.5206626 C23.7470069,39.7061651 23.5994522,39.8563769 23.417231,39.8563769 L18.8208121,39.8563769 C18.6385909,39.8563769 18.4908139,39.7061651 18.4908139,39.5206626 L18.4908139,35.4687898 C18.4908139,35.2832872 18.6385909,35.1328492 18.8208121,35.1328492 L23.417231,35.1328492 Z M30.9183004,35.1328492 C31.1007438,35.1328492 31.2482985,35.2832872 31.2480763,35.4687898 L31.2480763,39.5206626 C31.2480763,39.7061651 31.1005216,39.8563769 30.9183004,39.8563769 L26.3218815,39.8563769 C26.1396603,39.8563769 25.9918833,39.7061651 25.9918833,39.5206626 L25.9918833,35.4687898 C25.9918833,35.2832872 26.1396603,35.1328492 26.3218815,35.1328492 L30.9183004,35.1328492 Z M38.419592,35.1328492 C38.6018132,35.1328492 38.7495902,35.2832872 38.749368,35.4687898 L38.749368,39.5206626 C38.749368,39.7061651 38.601591,39.8563769 38.419592,39.8563769 L33.8229509,39.8563769 C33.6409519,39.8563769 33.4931749,39.7061651 33.4931749,39.5206626 L33.4931749,35.4687898 C33.4931749,35.2832872 33.6409519,35.1328492 33.8229509,35.1328492 L38.419592,35.1328492 Z"/>
  </defs>
  <g fill="none" fill-rule="evenodd">
    <use fill="#000" fill-rule="nonzero" xlink:href="#calendar-a"/>
  </g>
</svg>
