<svg xmlns="http://www.w3.org/2000/svg" xmlns:xlink="http://www.w3.org/1999/xlink" width="50" height="50" viewBox="0 0 50 50">
  <defs>
    <path id="checkmark-a" d="M48.6118014,11.1820093 L43.1638124,5.73402025 C42.5191346,5.0890709 41.4733662,5.0890709 40.8286884,5.73402025 L18.1340749,28.4289054 L8.48128764,18.7761181 C7.83660984,18.1314403 6.79084144,18.1314403 6.14616365,18.7761181 L0.698174645,24.2241071 C0.0532252938,24.8687849 0.0532252938,25.9145533 0.698174645,26.5592311 L16.9661055,42.827162 C17.288716,43.1497725 17.7109881,43.3108061 18.1335317,43.3108061 C18.556347,43.3108061 18.9788906,43.1495009 19.3012295,42.827162 L48.6118014,13.5165901 C48.9213771,13.2070144 49.095174,12.7869148 49.095174,12.3491639 C49.095174,11.911413 48.9211055,11.4915849 48.6118014,11.1820093 Z"/>
  </defs>
  <g fill="none" fill-rule="evenodd">
    <use fill="#000" fill-rule="nonzero" xlink:href="#checkmark-a"/>
    <rect width="50" height="50" fill="#000"/>
  </g>
</svg>
