<svg width="21px" height="21px" viewBox="0 0 21 21" version="1.1" xmlns="http://www.w3.org/2000/svg" xmlns:xlink="http://www.w3.org/1999/xlink">
        <path d="M10.1498539,8.99906918 L18.2434234,0.905200127 C18.6796866,0.468920844 19.3873804,0.469907901 19.8226565,0.905200127 C20.2589197,1.34147941 20.2589197,2.04821237 19.8226565,2.48449165 L11.729087,10.5783607 L19.8226565,18.6722298 C20.2579326,19.107522 20.2579326,19.8162291 19.8226565,20.2515213 C19.3863934,20.6878006 18.6786996,20.6868135 18.2434234,20.2515213 L10.1498539,12.1576522 L2.05628432,20.2515213 C1.6210082,20.6868135 0.913314371,20.6878006 0.477051231,20.2515213 C0.0417751121,19.8162291 0.0417751121,19.107522 0.477051231,18.6722298 L8.57062079,10.5783607 L0.477051231,2.48449165 C0.0407880914,2.04821237 0.0407880914,1.34147941 0.477051231,0.905200127 C0.91232735,0.469907901 1.62002118,0.468920844 2.05628432,0.905200127 L10.1498539,8.99906918 Z" id="closed" fill="#4A4A4A"></path>
</svg>