<svg xmlns="http://www.w3.org/2000/svg" width="50" height="50" viewBox="0 0 50 50">
  <path d="M19.859,25.786 C19.88,25.444 19.901,25.101 19.946,24.755 C20.029,23.934 20.207,23.11 20.389,22.308 C20.5,21.908 20.62,21.513 20.746,21.127 C20.907,20.75 21.065,20.375 21.222,20.009 C21.578,19.294 21.976,18.626 22.451,18.067 C22.564,17.923 22.676,17.783 22.785,17.643 C22.91,17.518 23.035,17.397 23.156,17.276 C23.41,17.046 23.631,16.797 23.885,16.614 C24.391,16.239 24.839,15.883 25.295,15.662 C25.734,15.417 26.111,15.204 26.451,15.084 C27.117,14.816 27.495,14.681 27.495,14.681 C27.495,14.681 27.173,14.937 26.609,15.352 C26.318,15.542 26.009,15.842 25.642,16.149 C25.259,16.442 24.913,16.862 24.5,17.264 C24.294,17.47 24.134,17.728 23.939,17.966 C23.844,18.087 23.747,18.209 23.647,18.333 C23.566,18.47 23.482,18.607 23.397,18.747 C23.033,19.286 22.761,19.919 22.478,20.561 C22.362,20.897 22.244,21.238 22.124,21.582 C22.042,21.94 21.951,22.302 21.852,22.662 C21.703,23.403 21.557,24.158 21.494,24.935 C21.45,25.217 21.429,25.501 21.403,25.787 C27.575,25.788 32.353,25.792 39.037,25.792 C39.059,25.499 39.072,25.202 39.072,24.904 C39.072,19.274 34.969,14.637 29.69,14.023 C30.031,13.704 30.247,13.252 30.247,12.749 C30.249,11.782 29.466,11 28.501,11 C27.536,11 26.751,11.782 26.751,12.749 C26.751,13.253 26.966,13.704 27.308,14.023 C22.029,14.637 17.928,19.274 17.928,24.904 C17.928,25.201 17.939,25.494 17.961,25.786 C18.613,25.786 19.242,25.786 19.859,25.786 Z M16.004,26.437 L41,26.437 L41,28.642 L16.004,28.642 L16.004,26.437 Z M30.738,30.207 C29.468,30.824 25.038,32.422 25.038,32.422 L19.802,32.094 C19.802,32.094 22.797,31.261 23.958,31 C25.121,30.74 24.615,29.429 23.972,29.429 C23.329,29.429 17.725,29.66 17.725,29.66 L14.004,31 L14.989,37.233 C14.989,37.233 15.755,35.921 16.519,35.921 C17.286,35.921 23.93,36.098 24.832,35.921 C25.734,35.742 31.23,31.982 31.889,31.544 C32.544,31.108 32.014,29.588 30.738,30.206 L30.738,30.207 Z M9,31.67 L9,39.75 L14.701,38.683 L13.275,30.918 L9,31.67 Z"/>
</svg>
