<svg xmlns="http://www.w3.org/2000/svg" width="50" height="50" viewBox="0 0 50 50">
  <path d="M16.6973698,26.6554758 C16.5834542,26.6554758 16.4695436,26.631926 16.3636245,26.5887455 L0.55377326,19.944858 C0.2839795,19.8310231 0.0921248,19.5876467 0.04815682,19.3030795 C0.00418884,19.0185123 0.11410879,18.7280263 0.33593887,18.5415673 L3.64944916,15.7624196 C3.84930037,15.5936267 4.11709372,15.5268964 4.37691103,15.5798898 L15.2087717,17.8114682 L20.9265535,14.0156143 L2.91216484,11.6643021 C2.57042301,11.6191621 2.29065793,11.3777503 2.20271173,11.0519169 C2.11477577,10.7261087 2.23468752,10.3787353 2.50848208,10.1726306 L7.07503278,6.7496945 C7.22291951,6.6378191 7.40478241,6.5789421 7.5906359,6.5789421 L7.59263631,6.5789421 L32.7997862,6.6083857 L40.2401673,1.41104977 C40.2561552,1.40123694 40.2701427,1.39141908 40.2861306,1.38160624 C41.4672393,0.66325444 42.6263487,0.30018455 43.7315341,0.30018455 C45.3902843,0.30018455 46.7952235,1.1519869 47.4866678,2.5788928 C48.5358828,4.7417864 47.8324054,6.7653006 45.5101551,8.278678 L17.1637507,26.5201009 C17.0238554,26.6084215 16.8599807,26.6555261 16.6981014,26.6555261 L16.6973698,26.6554758 Z M2.48016893,18.9363468 L16.6114189,24.8752979 L44.570021,6.8830898 C46.6923945,5.4993946 46.3726366,4.1726269 45.946975,3.2953001 C45.5392812,2.4532955 44.7298999,1.96853238 43.7286742,1.96853238 C42.9632507,1.96853238 42.0879328,2.2511601 41.200592,2.7869721 L33.5622168,8.1234864 C33.4183257,8.2235844 33.2464546,8.2785373 33.0685925,8.2785373 L33.0665921,8.2785373 L7.87581385,8.2490988 L5.1738857,10.2745725 L23.366316,12.6494495 C23.7160492,12.6945896 24.0018411,12.9477788 24.081755,13.2853494 C24.1616945,13.62293 24.0217991,13.9742577 23.7300214,14.1685548 L15.8619321,19.3915156 C15.6700774,19.5190925 15.4362551,19.5642326 15.2104447,19.5171279 L4.43639622,17.2973068 L2.48016893,18.9363468 Z M34.3183289,33.6998155 L2.29445102,33.6998155 C1.82480606,33.6998155 1.44307659,33.324943 1.44307659,32.8656491 C1.44307659,32.4044157 1.82279031,32.0295231 2.29445102,32.0295231 L34.3183289,32.0295231 C34.7879739,32.0295231 35.1677081,32.4043956 35.1677081,32.8656491 C35.1697034,33.3249179 34.7879944,33.6998155 34.3183289,33.6998155 Z" transform="translate(1 8)"/>
</svg>
