<svg xmlns="http://www.w3.org/2000/svg" width="50" height="50" viewBox="0 0 50 50">
  <path d="M35.523,16.964 C35.409,16.537 35.178,16.082 35.007,15.684 C32.959,10.763 28.485,9 24.873,9 C20.037,9 14.711,12.243 14,18.927 L14,20.293 C14,20.35 14.02,20.862 14.048,21.118 C14.447,24.303 16.96,27.689 18.837,30.874 C20.857,34.287 22.952,37.644 25.029,41 C26.309,38.81 27.585,36.591 28.836,34.458 C29.177,33.832 29.573,33.206 29.914,32.609 C30.141,32.211 30.576,31.813 30.775,31.443 C32.795,27.745 36.045,24.019 36.045,20.35 L36.045,18.843 C36.045,18.445 35.552,17.051 35.524,16.966 L35.523,16.964 Z M24.962,23.82 C23.54,23.82 21.984,23.109 21.216,21.146 C21.102,20.834 21.111,20.207 21.111,20.15 L21.111,19.268 C21.111,16.766 23.236,15.628 25.084,15.628 C27.36,15.628 29.12,17.449 29.12,19.724 C29.12,21.999 27.237,23.82 24.962,23.82 Z"/>
</svg>
