<svg xmlns="http://www.w3.org/2000/svg" width="518" height="512" viewBox="0 0 518 512">
  <path fill="#000" d="M458.834 126.495h-8.243c12.6-13.459 20.368-31.412 20.368-51.2 0-41.529-33.987-75.294-75.79-75.294s-75.789 33.765-75.789 75.294c0 19.788 7.768 37.741 20.368 51.2h-14.305c-16.721 0-30.316 13.506-30.316 30.117v3.059c-6.75-1.953-13.856-3.059-21.221-3.059-22.548 0-42.774 9.882-56.653 25.459-5.447-8.071-14.708-13.412-25.2-13.412h-17.337c12.6-13.459 20.369-31.411 20.369-51.2 0-41.529-33.987-75.294-75.79-75.294s-75.79 33.765-75.79 75.294c0 19.789 7.768 37.741 20.368 51.2h-5.21c-16.721 0-30.316 13.506-30.316 30.118v222.872c0 6.659 5.424 12.047 12.127 12.047s12.127-5.388 12.127-12.047v-222.871c0-3.317 2.724-6.024 6.063-6.024h133.39c3.339 0 6.063 2.706 6.063 6.024v18.071c0 1.553 0.332 3.012 0.852 4.376-0.498 3.506-0.852 7.036-0.852 10.682 0 19.788 7.768 37.741 20.369 51.2h-14.305c-16.721 0-30.316 13.506-30.316 30.118v186.73c0 6.659 5.423 12.047 12.126 12.047s12.126-5.388 12.126-12.047v-186.73c0-3.317 2.724-6.024 6.063-6.024h133.39c3.339 0 6.063 2.706 6.063 6.024v186.73c0 6.659 5.423 12.047 12.127 12.047s12.127-5.388 12.127-12.047v-186.73c0-16.611-13.595-30.118-30.316-30.118h-8.243c12.6-13.459 20.368-31.411 20.368-51.2 0-24.565-11.961-46.329-30.316-60.094v-15.2c0-3.317 2.724-6.024 6.063-6.024h133.39c3.339 0 6.063 2.706 6.063 6.024v222.871c0 6.659 5.423 12.047 12.127 12.047s12.127-5.388 12.127-12.047v-222.871c0-16.612-13.595-30.118-30.316-30.118v0zM67.76 117.46c0-28.236 23.116-51.2 51.537-51.2s51.537 22.965 51.537 51.2c0 28.235-23.116 51.2-51.537 51.2s-51.537-22.965-51.537-51.2zM273.908 283.107c-28.421 0-51.537-22.964-51.537-51.2s23.116-51.2 51.537-51.2c28.421 0 51.537 22.964 51.537 51.2s-23.116 51.2-51.537 51.2zM343.634 75.294c0-28.236 23.116-51.2 51.537-51.2s51.537 22.965 51.537 51.2c0 28.236-23.116 51.2-51.537 51.2s-51.537-22.965-51.537-51.2z"></path>
</svg>
