<svg xmlns="http://www.w3.org/2000/svg" width="22" height="24" viewBox="0 0 22 24">
  <path fill-rule="evenodd" d="M37.1789417,23.9294146 L36.7925859,23.9294146 C37.3832038,23.2985248 37.7473627,22.4569997 37.7473627,21.5294134 C37.7473627,19.5827302 36.1542206,18 34.1947312,18 C32.2352417,18 30.6420996,19.5827302 30.6420996,21.5294134 C30.6420996,22.4569997 31.0062301,23.2985248 31.5968764,23.9294146 L30.9263101,23.9294146 C30.1425143,23.9294146 29.5052575,24.5625066 29.5052575,25.3411799 L29.5052575,25.4845616 C29.1888459,25.3930171 28.8557796,25.3411799 28.5105206,25.3411799 C27.4535985,25.3411799 26.5055006,25.8044084 25.8549143,26.5345734 C25.5995682,26.1562768 25.1654764,25.9058861 24.6736785,25.9058861 L23.8610069,25.9058861 C24.4516248,25.2749964 24.8157838,24.4334713 24.8157838,23.5058849 C24.8157838,21.5592017 23.2226417,19.9764715 21.2631522,19.9764715 C19.3036627,19.9764715 17.7105206,21.5592017 17.7105206,23.5058849 C17.7105206,24.4334713 18.0746512,25.2749964 18.6652975,25.9058861 L18.4210526,25.9058861 C17.6372568,25.9058861 17,26.5389781 17,27.3176514 L17,37.7647152 C17,38.0768565 17.2542348,38.3294213 17.5684211,38.3294213 C17.8826073,38.3294213 18.1368421,38.076848 18.1368421,37.7647152 L18.1368421,27.3176514 C18.1368421,27.162137 18.2645152,27.0352984 18.4210526,27.0352984 L24.6736842,27.0352984 C24.8302217,27.0352984 24.9578947,27.162137 24.9578947,27.3176514 L24.9578947,28.1647107 C24.9578947,28.2375041 24.9734382,28.3058872 24.9978604,28.3698571 C24.9745466,28.5341951 24.9578947,28.6996455 24.9578947,28.8705821 C24.9578947,29.7981684 25.3220253,30.6396935 25.9126716,31.2705832 L25.2421053,31.2705832 C24.4583095,31.2705832 23.8210526,31.9036752 23.8210526,32.6823486 L23.8210526,41.4352939 C23.8210526,41.7474352 24.0752875,42 24.3894737,42 C24.7036599,42 24.9578947,41.7474267 24.9578947,41.4352939 L24.9578947,32.6823486 C24.9578947,32.5268341 25.0855678,32.3999955 25.2421053,32.3999955 L31.4947368,32.3999955 C31.6512743,32.3999955 31.7789474,32.5268341 31.7789474,32.6823486 L31.7789474,41.4352939 C31.7789474,41.7474352 32.0331822,42 32.3473684,42 C32.6615546,42 32.9157895,41.7474267 32.9157895,41.4352939 L32.9157895,32.6823486 C32.9157895,31.9036752 32.2785326,31.2705832 31.4947368,31.2705832 L31.1083811,31.2705832 C31.6989989,30.6396935 32.0631579,29.7981684 32.0631579,28.8705821 C32.0631579,27.719118 31.5024958,26.6988916 30.6421053,26.0536584 L30.6421053,25.3411686 C30.6421053,25.1856542 30.7697783,25.0588156 30.9263158,25.0588156 L37.1789474,25.0588156 C37.3354848,25.0588156 37.4631579,25.1856542 37.4631579,25.3411686 L37.4631579,35.7882324 C37.4631579,36.1003737 37.7173927,36.3529385 38.0315789,36.3529385 C38.3457652,36.3529385 38.6,36.1003652 38.6,35.7882324 L38.6,25.3411686 C38.6,24.5624953 37.9627432,23.9294033 37.1789474,23.9294033 L37.1789417,23.9294146 Z M18.8473627,23.5058849 C18.8473627,22.1823549 19.9309154,21.1058838 21.2631522,21.1058838 C22.5953891,21.1058838 23.6789417,22.1823549 23.6789417,23.5058849 C23.6789417,24.829415 22.5953891,25.9058861 21.2631522,25.9058861 C19.9309154,25.9058861 18.8473627,24.829415 18.8473627,23.5058849 Z M28.5105206,31.2705945 C27.1782838,31.2705945 26.0947312,30.1941234 26.0947312,28.8705934 C26.0947312,27.5470633 27.1782838,26.4705922 28.5105206,26.4705922 C29.8427575,26.4705922 30.9263101,27.5470633 30.9263101,28.8705934 C30.9263101,30.1941234 29.8427575,31.2705945 28.5105206,31.2705945 Z M31.7789417,21.5294134 C31.7789417,20.2058834 32.8624943,19.1294123 34.1947312,19.1294123 C35.526968,19.1294123 36.6105206,20.2058834 36.6105206,21.5294134 C36.6105206,22.8529435 35.526968,23.9294146 34.1947312,23.9294146 C32.8624943,23.9294146 31.7789417,22.8529435 31.7789417,21.5294134 Z" transform="translate(-17 -18)"/>
</svg>
