<svg version="1.1" xmlns="http://www.w3.org/2000/svg" width="516" height="512" viewBox="0 0 516 512">
  <path d="M359.763 132.834c-7.081-2.048-14.534-3.208-22.261-3.208-23.652 0-44.87 10.367-59.429 26.707-5.714-8.466-15.428-14.069-26.435-14.069h-18.186c13.217-14.119 21.367-32.951 21.367-53.709 0-43.564-35.653-78.984-79.503-78.984s-79.503 35.419-79.503 78.984c0 20.758 8.148 39.59 21.367 53.709h-5.466c-17.541 0-31.801 14.167-31.801 31.594v233.791c0 6.986 5.689 12.637 12.721 12.637s12.721-5.652 12.721-12.637v-233.791c0-3.48 2.857-6.319 6.36-6.319h139.925c3.503 0 6.36 2.839 6.36 6.319v18.956c0 1.629 0.348 3.16 0.894 4.591-0.522 3.678-0.894 7.38-0.894 11.206 0 20.758 8.149 39.59 21.366 53.709h-15.007c-17.541 0-31.801 14.168-31.801 31.594v195.879c0 6.986 5.69 12.637 12.72 12.637s12.72-5.652 12.72-12.637v-195.879c0-3.48 2.857-6.318 6.36-6.318h139.925c3.503 0 6.36 2.839 6.36 6.318v195.879c0 6.986 5.69 12.637 12.721 12.637s12.721-5.652 12.721-12.637v-195.879c0-17.425-14.261-31.594-31.801-31.594h-8.646c13.217-14.119 21.366-32.951 21.366-53.709 0-25.768-12.547-48.6-31.801-63.039l-25.441-12.736zM121.254 88.555c0-29.619 24.249-53.709 54.062-53.709s54.062 24.090 54.062 53.709c0 29.619-24.249 53.709-54.062 53.709s-54.062-24.090-54.062-53.709zM337.502 262.318c-29.813 0-54.062-24.090-54.062-53.709s24.248-53.709 54.062-53.709c29.813 0 54.062 24.090 54.062 53.709s-24.248 53.709-54.062 53.709z"></path>
</svg>
