<svg xmlns="http://www.w3.org/2000/svg" xmlns:xlink="http://www.w3.org/1999/xlink" width="50" height="50" viewBox="0 0 50 50">
  <defs>
    <path id="globe-a" d="M44.952,23.6666667 C44.296,13.6826667 36.3173333,5.70133333 26.3331111,5.04533333 L26.3331111,5 L25,5 L23.6666667,5 L23.6666667,5.04533333 C13.6826667,5.70133333 5.70133333,13.6826667 5.04533333,23.6666667 L5,23.6666667 L5,25 L5,26.3333333 L5.04533333,26.3333333 C5.70133333,36.3173333 13.6826667,44.296 23.6666667,44.952 L23.6666667,45 L25,45 L26.3331111,45 L26.3331111,44.952 C36.3173333,44.296 44.296,36.3173333 44.952,26.3333333 L45,26.3333333 L45,25 L45,23.6666667 L44.952,23.6666667 L44.952,23.6666667 Z M17.52,9.36 C16.232,11.072 15.1626667,13.2186667 14.384,15.6666667 L10.3893333,15.6666667 C12.128,12.9546667 14.5973333,10.76 17.52,9.36 Z M8.99466667,18.3333333 L13.6826667,18.3333333 C13.3253333,20.0186667 13.0986667,21.808 13.0266667,23.6666667 L7.71733333,23.6666667 C7.85866667,21.7893333 8.30133333,19.9946667 8.99466667,18.3333333 Z M7.71733333,26.3333333 L13.0266667,26.3333333 C13.0986667,28.192 13.3253333,29.9813333 13.6826667,31.6668889 L8.99466667,31.6668889 C8.30133333,30.0053333 7.85866667,28.2104444 7.71733333,26.3333333 Z M10.3893333,34.3331111 L14.3813333,34.3331111 C15.16,36.7813333 16.2293333,38.9282222 17.52,40.64 C14.5973333,39.24 12.128,37.048 10.3893333,34.3331111 Z M23.6666667,42.1626667 C20.9253333,41.4291111 18.5653333,38.4851111 17.1333333,34.3331111 L23.6666667,34.3331111 L23.6666667,42.1626667 Z M23.6666667,31.6668889 L16.384,31.6668889 C16.008,30.0053333 15.7706667,28.2104444 15.6933333,26.3333333 L23.6666667,26.3333333 L23.6666667,31.6668889 Z M23.6666667,23.6666667 L15.6933333,23.6666667 C15.7706667,21.7893333 16.008,19.9946667 16.384,18.3333333 L23.6666667,18.3333333 L23.6666667,23.6666667 Z M23.6666667,15.6666667 L17.1333333,15.6666667 C18.5653333,11.5146667 20.9253333,8.57066667 23.6666667,7.84 L23.6666667,15.6666667 Z M39.6104444,15.6666667 L35.6213333,15.6666667 C34.84,13.2186667 33.7735556,11.072 32.48,9.36 C35.4,10.76 37.872,12.9546667 39.6104444,15.6666667 Z M26.3331111,7.84 C29.0717778,8.57066667 31.4346667,11.5146667 32.8666667,15.6666667 L26.3331111,15.6666667 L26.3331111,7.84 L26.3331111,7.84 Z M26.3331111,18.3333333 L33.6133333,18.3333333 C33.992,19.9946667 34.224,21.7893333 34.3066667,23.6666667 L26.3331111,23.6666667 L26.3331111,18.3333333 Z M26.3331111,26.3333333 L34.3066667,26.3333333 C34.2293333,28.2104444 33.992,30.0053333 33.6133333,31.6668889 L26.3331111,31.6668889 L26.3331111,26.3333333 Z M26.3331111,42.1626667 L26.3331111,34.3331111 L32.8666667,34.3331111 C31.4346667,38.4853333 29.0717778,41.4293333 26.3331111,42.1626667 Z M32.48,40.64 C33.768,38.9253333 34.84,36.7813333 35.6213333,34.3331111 L39.6104444,34.3331111 C37.872,37.048 35.4,39.24 32.48,40.64 Z M41.0053333,31.6668889 L36.3171111,31.6668889 C36.6744444,29.9813333 36.9013333,28.192 36.9733333,26.3333333 L42.28,26.3333333 C42.1415556,28.2104444 41.6986667,30.0053333 41.0053333,31.6668889 Z M36.9735556,23.6666667 C36.9015556,21.808 36.6746667,20.0186667 36.3173333,18.3333333 L41.0055556,18.3333333 C41.6986667,19.9946667 42.1415556,21.7893333 42.2826667,23.6666667 L36.9735556,23.6666667 Z"/>
  </defs>
  <g fill="none" fill-rule="evenodd">
    <use fill="#000" fill-rule="nonzero" xlink:href="#globe-a"/>
  </g>
</svg>
