<svg xmlns="http://www.w3.org/2000/svg" width="50" height="50" viewBox="0 0 50 50">
  <path d="M15.5892636,15.558 C15.5982636,15.558 15.6372636,15.558 15.6472636,15.558 C17.4442636,15.542 18.8962636,14.08 18.8962636,12.279 C18.8962636,10.478 17.4442636,9.017 15.6472636,9 C15.6382636,9 15.5992636,9 15.5892636,9 C13.7922636,9.016 12.3402636,10.478 12.3402636,12.279 C12.3402636,14.08 13.7922636,15.541 15.5892636,15.558 Z M37.3402636,12.28 C37.3402636,14.091 35.8722636,15.559 34.0612636,15.559 C32.2502636,15.559 30.7822636,14.091 30.7822636,12.28 C30.7822636,10.469 32.2502636,9.001 34.0612636,9.001 C35.8722636,9.001 37.3402636,10.469 37.3402636,12.28 Z M35.8222636,16.123 C35.5242636,15.956 35.2032636,15.83 34.8782636,15.75 L34.0612636,16.572 L33.2692636,15.741 C33.2652636,15.742 33.2622636,15.742 33.2602636,15.743 C32.8422636,15.843 31.9292636,16.318 31.8642636,16.359 C29.3452636,17.904 28.2392636,20.183 27.0812636,25.459 C26.9772636,25.932 27.1542636,26.397 27.4972636,26.691 C27.6162636,27.493 27.5512636,28.092 27.2952636,28.272 C26.8202636,28.606 26.1842636,28.071 25.9622636,27.905 C25.7122636,27.71 25.4192636,27.569 25.1162636,27.496 C25.1142636,27.496 25.1122636,27.495 25.1112636,27.495 L24.6352636,27.995 L24.1592636,27.495 C24.1582636,27.495 24.1552636,27.496 24.1542636,27.496 C23.8512636,27.568 23.5582636,27.71 23.3082636,27.905 C23.0862636,28.07 22.4492636,28.606 21.9752636,28.272 C21.7152636,28.089 21.6522636,27.476 21.7782636,26.657 C22.0442636,26.427 22.2152636,26.09 22.2212636,25.712 C22.5682636,17.983 16.8882636,15.861 16.4352636,15.751 L15.6182636,16.573 L14.8012636,15.751 C14.3482636,15.861 8.66826362,17.984 9.01526362,25.712 C9.02526362,26.409 9.59326362,26.967 10.2882636,26.967 C10.2942636,26.967 10.3002636,26.967 10.3062636,26.966 C11.0092636,26.956 11.5712636,26.38 11.5612636,25.676 C11.5422636,24.292 11.6522636,23.209 11.8552636,22.343 C11.8552636,22.343 12.0582636,21.574 12.2632636,21.472 L12.2632636,23.426 C11.9042636,24.98 10.4072636,31.521 10.4022636,32.498 C10.4002636,32.976 11.3062636,33.324 12.5752636,33.53 L12.5752636,39.497 C12.5752636,40.327 13.1202636,41.001 13.9502636,41.001 C14.7802636,41.001 15.4712636,40.328 15.4712636,39.497 L15.4552636,33.747 C15.4662636,33.747 15.4772636,33.747 15.4882636,33.747 C15.4992636,33.747 15.7202636,33.747 15.7312636,33.747 L15.7312636,39.497 C15.7312636,40.327 16.4042636,41.001 17.2362636,41.001 C18.0662636,41.001 18.6602636,40.328 18.6602636,39.497 L18.6602636,33.53 C19.9292636,33.324 20.8352636,32.975 20.8332636,32.498 C20.8282636,31.521 19.3312636,24.98 18.9722636,23.426 L18.9722636,21.472 C19.1762636,21.574 19.3802636,22.343 19.3802636,22.343 C19.5832636,23.21 19.6942636,24.293 19.6742636,25.676 C19.6672636,26.161 19.9322636,26.585 20.3272636,26.805 C20.2042636,28.023 20.4622636,28.893 21.0992636,29.391 C21.5022636,29.706 21.9722636,29.805 22.4022636,29.805 C22.4752636,29.805 22.5462636,29.802 22.6162636,29.797 C22.6142636,29.871 22.6132636,29.947 22.6132636,30.027 L22.6132636,33.048 C22.6132636,33.254 22.6802636,33.587 22.7522636,33.763 C22.7462636,33.803 22.7432636,40.094 22.7432636,40.094 C22.7432636,40.594 23.1492636,41.001 23.6502636,41.001 C24.1512636,41.001 24.5562636,40.595 24.5562636,40.094 L24.5562636,34.786 L24.5872636,34.786 L24.5872636,34.787 L24.6362636,34.787 L24.6852636,34.787 L24.6852636,34.786 L24.7162636,34.786 L24.7162636,40.094 C24.7162636,40.595 25.1212636,41.001 25.6222636,41.001 C26.1232636,41.001 26.5292636,40.595 26.5292636,40.094 C26.5292636,40.094 26.5262636,33.803 26.5202636,33.763 C26.5912636,33.587 26.6592636,33.254 26.6592636,33.048 L26.6592636,30.027 C26.6592636,29.947 26.6582636,29.871 26.6562636,29.797 C26.7262636,29.802 26.7972636,29.805 26.8702636,29.805 C27.3002636,29.805 27.7702636,29.706 28.1732636,29.391 C28.8082636,28.894 29.0672636,28.028 28.9462636,26.815 C29.0252636,26.778 29.1002636,26.734 29.1702636,26.681 C29.3642636,26.509 29.5092636,26.277 29.5702636,26.005 C29.9492636,24.279 30.3102636,23.006 30.7052636,21.803 L30.7052636,25.842 C30.7052636,26.231 30.7922636,26.641 30.9412636,26.967 L30.9322636,39.498 C30.9322636,40.328 31.6052636,41.002 32.4372636,41.002 C33.2672636,41.002 33.9412636,40.328 33.9412636,39.498 L33.9412636,28.731 L34.1552636,28.732 L34.1552636,39.498 C34.1552636,40.328 34.8292636,41.002 35.6602636,41.002 C36.4912636,41.002 37.1652636,40.328 37.1652636,39.498 L37.1622636,26.964 C37.3242636,26.626 37.4192636,26.25 37.4192636,25.842 L37.4192636,21.82 C37.4192636,21.82 38.0542636,22.877 37.7572636,25.454 C37.6862636,26.154 38.1972636,26.777 38.8972636,26.848 C38.9402636,26.852 38.9822636,26.854 39.0252636,26.854 C39.6712636,26.854 40.2242636,26.364 40.2902636,25.709 C40.8662636,19.98 37.8372636,17.228 35.8252636,16.125 L35.8222636,16.123 Z M34.0602636,24.659 C33.8492636,24.659 33.6782636,24.488 33.6782636,24.277 C33.6782636,24.066 33.8492636,23.895 34.0602636,23.895 C34.2712636,23.895 34.4422636,24.066 34.4422636,24.277 C34.4422636,24.488 34.2712636,24.659 34.0602636,24.659 Z M34.0602636,23.46 C33.8492636,23.46 33.6782636,23.289 33.6782636,23.078 C33.6782636,22.867 33.8492636,22.696 34.0602636,22.696 C34.2712636,22.696 34.4422636,22.867 34.4422636,23.078 C34.4422636,23.289 34.2712636,23.46 34.0602636,23.46 Z M34.0602636,22.31 C33.8492636,22.31 33.6782636,22.139 33.6782636,21.928 C33.6782636,21.717 33.8492636,21.546 34.0602636,21.546 C34.2712636,21.546 34.4422636,21.717 34.4422636,21.928 C34.4422636,22.139 34.2712636,22.31 34.0602636,22.31 Z M34.1232636,20.82 L33.5322636,17.549 L34.0612636,17.029 L34.6142636,17.54 L34.1242636,20.819 L34.1232636,20.82 Z M24.5702636,27.383 C24.5912636,27.384 24.6122636,27.385 24.6342636,27.385 C24.6342636,27.385 24.6352636,27.385 24.6352636,27.385 C24.6352636,27.385 24.6362636,27.385 24.6362636,27.385 C24.6572636,27.385 24.6792636,27.384 24.7002636,27.383 C25.7612636,27.348 26.6112636,26.478 26.6112636,25.408 C26.6112636,24.338 25.7612636,23.472 24.7002636,23.438 C24.6792636,23.437 24.6582636,23.436 24.6362636,23.436 C24.6362636,23.436 24.6352636,23.436 24.6352636,23.436 C24.6352636,23.436 24.6342636,23.436 24.6342636,23.436 C24.6132636,23.436 24.5912636,23.437 24.5702636,23.438 C23.5092636,23.472 22.6592636,24.339 22.6592636,25.408 C22.6592636,26.477 23.5092636,27.349 24.5702636,27.383 Z"/>
</svg>
