<svg xmlns="http://www.w3.org/2000/svg" width="50" height="50" viewBox="0 0 50 50">
  <path d="M37.7116022,15.7734807 L36.120442,15.7734807 L36.120442,39.640884 L37.7116022,39.640884 C39.4618785,39.640884 40.8939227,38.2088398 40.8939227,36.4585635 L40.8939227,18.9558011 C40.8939227,17.2055249 39.4618785,15.7734807 37.7116022,15.7734807 Z M9.07071823,18.9558011 L9.07071823,36.4585635 C9.07071823,38.2088398 10.5027624,39.640884 12.2530387,39.640884 L13.8441989,39.640884 L13.8441989,15.7734807 L12.2530387,15.7734807 C10.5027624,15.7734807 9.07071823,17.2055249 9.07071823,18.9558011 Z M30.3922652,12.4497238 C29.3138122,11.9546961 27.5812155,11 24.9823204,11 C22.3834254,11 20.6508287,11.9370166 19.5723757,12.4497238 L19.5723757,15.7734807 L16.0718232,15.7734807 L16.0718232,39.640884 L33.8928177,39.640884 L33.8928177,15.7734807 L30.3922652,15.7734807 L30.3922652,12.4497238 Z M28.4828729,15.7734807 L21.481768,15.7734807 L21.481768,13.6519337 C22.3303867,13.280663 23.5502762,12.9093923 24.9823204,12.9093923 C26.4143646,12.9093923 27.6342541,13.280663 28.4828729,13.6519337 L28.4828729,15.7734807 Z"/>
</svg>
