<svg xmlns="http://www.w3.org/2000/svg" width="50" height="50" viewBox="0 0 50 50">
  <g transform="translate(9 9)">
    <path d="M14.9511111,9.24444444 C14.4,9.24444444 13.28,9.26222222 12.9244444,9.29777778 L12.9244444,15.0755556 C13.2266667,15.1111111 14.2577778,15.1111111 14.6666667,15.1111111 C17.2088889,15.1111111 18.4888889,14.0622222 18.4888889,12 C18.4888889,10.1688889 17.2977778,9.24444444 14.9511111,9.24444444 Z"/>
    <path d="M28.2488889,0.0177777778 L3.64444444,0.0177777778 C1.63555556,0.0177777778 0,1.63555556 0,3.64444444 L0,28.2311111 C0,30.24 1.63555556,31.8755556 3.64444444,31.8755556 L28.2488889,31.8755556 C30.2577778,31.8755556 31.8933333,30.24 31.8933333,28.2311111 L31.8933333,3.64444444 C31.8755556,1.63555556 30.2577778,0.0177777778 28.2488889,0.0177777778 Z M21.1733333,16.6755556 C19.7155556,18.2222222 17.3866667,19.0755556 14.6133333,19.0755556 C14.2933333,19.0755556 13.28,19.0755556 12.9422222,19.0577778 L12.9422222,24.8 C12.9422222,25.7777778 12.1422222,26.5955556 11.1466667,26.5955556 L10.7377778,26.5955556 C9.74222222,26.5955556 8.94222222,25.7955556 8.94222222,24.8 L8.94222222,7.30666667 C8.94222222,6.4 9.61777778,5.63555556 10.5244444,5.52888889 C11.7333333,5.38666667 13.6355556,5.31555556 14.8977778,5.31555556 C17.5288889,5.31555556 19.5555556,5.93777778 20.9244444,7.16444444 C22.2222222,8.28444444 22.9333333,9.97333333 22.9333333,11.8933333 C22.9333333,13.8666667 22.3288889,15.4666667 21.1733333,16.6755556 Z"/>
  </g>
</svg>
