<svg xmlns="http://www.w3.org/2000/svg" width="50" height="50" viewBox="0 0 50 50">
  <path d="M40.7337459,21.024442 C40.5776354,20.8350939 40.345326,20.7245967 40.1018785,20.7245967 L37.0051271,20.7245967 C36.2404862,18.7082431 35.2449503,16.7332597 34.1134586,15.9875359 C30.1979669,13.4119779 19.8137017,13.4119779 15.8980331,15.9875359 C14.7656575,16.7339669 13.7741878,18.7112486 13.0056575,20.7245967 L9.90872928,20.7245967 C9.66280663,20.7245967 9.43120442,20.8350939 9.27686188,21.024442 C9.12251934,21.2137901 9.06046409,21.4636022 9.11067403,21.7040442 L9.56981215,23.9272486 C9.64777901,24.3061215 9.98209945,24.5766188 10.3671602,24.5766188 L11.2845525,24.5766188 C10.3989834,25.5983204 9.97007735,26.8850387 9.96371271,28.1724641 C9.95805525,29.7630939 10.561989,31.2002652 11.6664309,32.2171934 C11.678453,32.2276243 11.6902983,32.2355801 11.7023204,32.2458343 L11.7023204,35.3561989 C11.7023204,36.0294365 12.2498564,36.5783867 12.9246851,36.5783867 L15.7813481,36.5783867 C16.456,36.5783867 17.0035359,36.0294365 17.0035359,35.3561989 L17.0035359,34.1062541 L33.0070718,34.1062541 L33.0070718,35.3561989 C33.0070718,36.0294365 33.5544309,36.5783867 34.2292597,36.5783867 L37.0857459,36.5783867 C37.7589834,36.5783867 38.3079337,36.0294365 38.3079337,35.3561989 L38.3079337,32.3070055 C39.4800884,31.2336796 40.0394696,29.7576133 40.0467182,28.2831381 C40.0521989,26.9518674 39.6026077,25.6182983 38.6654144,24.5750276 L39.6441547,24.5750276 C40.0308066,24.5750276 40.3649503,24.3045304 40.4415028,23.9247735 L40.9013481,21.702453 C40.9476685,21.463779 40.8880884,21.2153812 40.7337459,21.024442 Z M17.2402652,18.0286409 C20.3610608,15.9749834 29.648663,15.9749834 32.7678674,18.0286409 C33.3742762,18.4264309 34.1539448,20.0338564 34.8685525,22.0024751 L15.1411713,22.0024751 C15.854011,20.0347403 16.6338564,18.4281989 17.2402652,18.0286409 Z M13.584663,28.4788508 C13.584663,27.1505856 14.6620552,26.0747845 15.9894365,26.0747845 C17.318232,26.0747845 18.3940331,27.1505856 18.3940331,28.4788508 C18.3940331,29.8069392 17.318232,30.8834475 15.9894365,30.8834475 C14.6620552,30.8834475 13.584663,29.8069392 13.584663,28.4788508 Z M34.0521105,30.8834475 C32.7247293,30.8834475 31.647337,29.8069392 31.647337,28.4788508 C31.647337,27.1505856 32.7247293,26.0747845 34.0521105,26.0747845 C35.3809061,26.0747845 36.4567072,27.1505856 36.4567072,28.4788508 C36.4567072,29.8069392 35.3793149,30.8834475 34.0521105,30.8834475 Z"/>
</svg>
