<svg xmlns="http://www.w3.org/2000/svg" width="50" height="50" viewBox="0 0 50 50">
  <path d="M36.315375,13.686 C30.067375,7.438 19.935375,7.438 13.686375,13.686 C7.43737501,19.934 7.43837501,30.066 13.686375,36.315 C19.934375,42.562 30.066375,42.563 36.315375,36.315 C42.563375,30.066 42.562375,19.935 36.315375,13.686 Z M27.087375,31.957 C27.087375,33.11 26.153375,34.044 25.000375,34.044 C23.847375,34.044 22.913375,33.11 22.913375,31.957 L22.913375,23.609 C22.913375,22.456 23.847375,21.522 25.000375,21.522 C26.153375,21.522 27.087375,22.456 27.087375,23.609 L27.087375,31.957 Z M24.963375,20.042 C23.761375,20.042 22.959375,19.191 22.985375,18.139 C22.960375,17.037 23.761375,16.211 24.988375,16.211 C26.215375,16.211 26.992375,17.037 27.017375,18.139 C27.016375,19.19 26.216375,20.042 24.963375,20.042 Z"/>
</svg>
