<svg width="19px" height="20px" viewBox="0 0 19 20" version="1.1" xmlns="http://www.w3.org/2000/svg" xmlns:xlink="http://www.w3.org/1999/xlink">
  <path d="M8.92278261,8.6353913 C9.04886957,8.50930435 9.20452174,8.44669565 9.39147826,8.44669565 C9.57756522,8.44669565 9.73408696,8.50930435 9.86017391,8.6353913 C9.9853913,8.76147826 10.0488696,8.92147826 10.0488696,9.11626087 L10.0488696,13.864087 C10.0488696,14.0510435 9.9853913,14.2066957 9.86017391,14.3327826 C9.73408696,14.4588696 9.58017391,14.5214783 9.39756522,14.5214783 C9.21495652,14.5214783 9.05843478,14.4562609 8.92886957,14.3266957 C8.79843478,14.1971304 8.73408696,14.0423478 8.73408696,13.864087 L8.73408696,9.11626087 C8.73408696,8.92147826 8.79669565,8.76147826 8.92278261,8.6353913 M10.0488696,6.65713043 L10.0488696,6.91278261 C10.0488696,7.09973913 9.9853913,7.258 9.86017391,7.38756522 C9.73408696,7.51713043 9.58017391,7.58234783 9.39756522,7.58234783 C9.21495652,7.58234783 9.05843478,7.51713043 8.92886957,7.38756522 C8.79843478,7.258 8.73408696,7.09973913 8.73408696,6.91278261 L8.73408696,6.65713043 C8.73408696,6.47886957 8.79843478,6.32408696 8.92886957,6.19452174 C9.05843478,6.06495652 9.21495652,5.99973913 9.39756522,5.99973913 C9.58017391,5.99973913 9.73408696,6.06321739 9.86017391,6.18843478 C9.9853913,6.31452174 10.0488696,6.47017391 10.0488696,6.65713043" id="Fill-1"></path>
  <g id="Group-5" transform="translate(0.000000, 0.521391)">
      <path d="M9.39130435,0.347826087 C4.21304348,0.347826087 0,4.56086957 0,9.73913043 L0,18.4347826 C0,18.8191304 0.311304348,19.1304348 0.695652174,19.1304348 L9.39130435,19.1304348 C14.5695652,19.1304348 18.7826087,14.9173913 18.7826087,9.73913043 C18.7826087,4.56086957 14.5695652,0.347826087 9.39130435,0.347826087 Z M1.39043478,9.73913043 C1.39043478,5.32869565 4.98,1.73913043 9.39130435,1.73913043 C13.8017391,1.73913043 17.3913043,5.32869565 17.3913043,9.73913043 C17.3913043,14.1504348 13.8017391,17.74 9.39130435,17.74 L1.39043478,17.74 L1.39043478,9.73913043 Z" id="Fill-3"></path>
  </g>
</svg>
