<svg xmlns="http://www.w3.org/2000/svg" width="507" height="512" viewBox="0 0 507 512">
  <path fill="#000" d="M253.252 8.258c-89.581 0-162.209 74.756-162.209 166.387 0 18.893 8.094 42.668 19.949 70.995s27.844 60.528 44.78 92.729c33.893 64.379 71.834 128.972 87.47 159.281 1.935 3.739 5.784 6.092 10.007 6.092s8.072-2.353 10.007-6.092c15.637-30.308 53.577-94.902 87.47-159.281 16.957-32.2 32.925-64.401 44.78-92.728s19.949-52.104 19.949-70.995c0-91.608-72.583-166.387-162.209-166.387h0.007zM253.252 30.78c77.132 0 139.687 64.092 139.687 143.865 0 11.591-6.774 35.015-18.19 62.285-11.437 27.273-27.163 59.053-43.945 90.944-27.911 53.028-58.546 106.056-77.549 140.762-19.003-34.685-49.641-87.712-77.549-140.762-16.781-31.87-32.529-63.653-43.945-90.944-11.436-27.273-18.189-50.719-18.189-62.285 0-79.773 62.617-143.865 139.687-143.865h-0.009zM253.252 99.754c-31.98 0-58.152 26.195-58.152 58.22 0 31.98 26.173 58.152 58.152 58.152s58.152-26.173 58.152-58.152c0-32.023-26.173-58.219-58.152-58.219zM253.252 122.275c19.817 0 35.63 15.814 35.63 35.696 0 19.816-15.836 35.63-35.63 35.63-19.816 0-35.63-15.836-35.63-35.63 0-19.882 15.836-35.696 35.63-35.696z"></path>
</svg>
