<svg xmlns="http://www.w3.org/2000/svg" width="17" height="24" viewBox="0 0 17 24">
  <path fill-rule="evenodd" d="M7.65395894,0 C3.45483871,0 0.0504105572,3.50419355 0.0504105572,7.79938416 C0.0504105572,8.685 0.429809384,9.79946921 0.985513196,11.1272727 C1.54121701,12.4550762 2.29072434,13.9645161 3.08457185,15.4739296 C4.67329619,18.4917009 6.45178592,21.5195015 7.18471848,22.9402346 C7.27544428,23.1154997 7.45585337,23.2258065 7.65380059,23.2258065 C7.8517478,23.2258065 8.03217009,23.1154918 8.1228827,22.9402346 C8.85589443,21.5195543 10.6343314,18.4917009 12.2230293,15.4739296 C13.0179062,13.9645689 13.7664106,12.4551026 14.322088,11.1272727 C14.8777654,9.79944282 15.2571906,8.68489443 15.2571906,7.79938416 C15.2571906,3.50524927 11.8548739,0 7.65364223,0 L7.65395894,0 Z M7.65395894,1.05571848 C11.2695308,1.05571848 14.2017889,4.06002933 14.2017889,7.79938416 C14.2017889,8.34270968 13.8842551,9.44070968 13.3491642,10.7189736 C12.8130704,11.9973959 12.075915,13.4870674 11.2892727,14.9819648 C9.98097361,17.467654 8.54493255,19.9533431 7.65417009,21.5802053 C6.76340762,19.954346 5.327261,17.4687097 4.01906745,14.9819648 C3.23242522,13.4880704 2.49426686,11.9982405 1.95917595,10.7189736 C1.42308211,9.44055132 1.10655132,8.34154839 1.10655132,7.79938416 C1.10655132,4.06002933 4.04171261,1.05571848 7.65438123,1.05571848 L7.65395894,1.05571848 Z M7.65395894,4.2888563 C6.15491789,4.2888563 4.92809384,5.51673607 4.92809384,7.01788856 C4.92809384,8.51692962 6.15494428,9.74375367 7.65395894,9.74375367 C9.15297361,9.74375367 10.379824,8.51690323 10.379824,7.01788856 C10.379824,5.51678886 9.15297361,4.2888563 7.65395894,4.2888563 Z M7.65395894,5.34457478 C8.58285924,5.34457478 9.32413196,6.08584751 9.32413196,7.01783578 C9.32413196,7.94673607 8.58182991,8.6880088 7.65395894,8.6880088 C6.72505865,8.6880088 5.98378592,7.94570674 5.98378592,7.01783578 C5.98378592,6.08584751 6.72608798,5.34457478 7.65395894,5.34457478 Z" transform="translate(.871 .774)"/>
</svg>
