<svg xmlns="http://www.w3.org/2000/svg" xmlns:xlink="http://www.w3.org/1999/xlink" width="50" height="50" viewBox="0 0 50 50">
  <defs>
    <path id="magnifying-glass-a" d="M44.0211978,39.2940476 L35.3314502,30.6042578 C35.285006,30.5578133 35.2310061,30.5258132 35.1825619,30.4827021 C36.8923337,27.8891429 37.8903302,24.7840275 37.8903302,21.4453562 C37.8903302,12.3628991 30.5276891,5 21.4452762,5 C12.3628633,5 5,12.3628991 5,21.4453562 C5,30.527591 12.3626411,37.8904901 21.445054,37.8904901 C24.7839313,37.8904901 27.8888094,36.892711 30.4825782,35.1827086 C30.5254669,35.2309309 30.557689,35.284931 30.6036889,35.3311532 L39.2936587,44.0211653 C40.5989875,45.3262782 42.7152024,45.3262782 44.0209756,44.0211653 C45.3263044,42.7160524 45.3263044,40.5993828 44.0211978,39.2940476 Z M21.4452762,32.1898155 C15.5110746,32.1898155 10.7008691,27.3793644 10.7008691,21.4453562 C10.7008691,15.5111257 15.5112968,10.7008968 21.4452762,10.7008968 C27.3790334,10.7008968 32.1896834,15.5113479 32.1896834,21.4453562 C32.1896834,27.3791422 27.3790334,32.1898155 21.4452762,32.1898155 Z"/>
  </defs>
  <g fill="none" fill-rule="evenodd">
    <use fill="#000" fill-rule="nonzero" xlink:href="#magnifying-glass-a"/>
  </g>
</svg>
