<svg xmlns="http://www.w3.org/2000/svg" xmlns:xlink="http://www.w3.org/1999/xlink" width="50" height="50" viewBox="0 0 50 50">
  <defs>
    <path id="phone-a" d="M34.3333333,29 C31.6666667,31.6666667 31.6666667,34.3333333 29,34.3333333 C26.3333333,34.3333333 23.6666667,31.6666667 21,29 C18.3333333,26.3333333 15.6666667,23.6666667 15.6666667,21 C15.6666667,18.3333333 18.3333333,18.3333333 21,15.6666667 C23.6666667,13 15.6666667,5 13,5 C10.3333333,5 5,13 5,13 C5,18.3333333 10.4786667,29.1453333 15.6666667,34.3333333 C20.8546667,39.5213333 31.6666667,45 37,45 C37,45 45,39.6666667 45,37 C45,34.3333333 37,26.3333333 34.3333333,29 Z"/>
  </defs>
  <g fill="none" fill-rule="evenodd">
    <use fill="#000" fill-rule="nonzero" xlink:href="#phone-a"/>
  </g>
</svg>
