<svg xmlns="http://www.w3.org/2000/svg" width="50" height="50" viewBox="0 0 50 50">
  <path d="M36.6666667,30 C33.3333333,33.3333333 33.3333333,36.6666667 30,36.6666667 C26.6666667,36.6666667 23.3333333,33.3333333 20,30 C16.6666667,26.6666667 13.3333333,23.3333333 13.3333333,20 C13.3333333,16.6666667 16.6666667,16.6666667 20,13.3333333 C23.3333333,10 13.3333333,0 10,0 C6.66666667,0 0,10 0,10 C0,16.6666667 6.84833333,30.1816667 13.3333333,36.6666667 C19.8183333,43.1516667 33.3333333,50 40,50 C40,50 50,43.3333333 50,40 C50,36.6666667 40,26.6666667 36.6666667,30 Z"/>
</svg>
