<svg width="20px" height="20px" viewBox="0 0 20 20" version="1.1" xmlns="http://www.w3.org/2000/svg" xmlns:xlink="http://www.w3.org/1999/xlink">
  <path d="M18.507319,14.6029406 L18.5075381,14.5848664 C18.5212219,14.0203594 18.1092704,13.5350602 17.5549385,13.4571016 C16.6035109,13.3310267 15.6717202,13.0996836 14.7756777,12.7661819 C14.3675289,12.6130112 13.9080991,12.7106845 13.6019542,13.013007 L12.0177082,14.5942264 L11.523973,14.3137494 C9.07755305,12.9240072 7.05283644,10.9031582 5.66034253,8.46125051 L5.37797982,7.96609311 L5.7816222,7.56359283 L6.96149994,6.38706514 C7.26698809,6.07956527 7.36478957,5.62196207 7.21097034,5.21428929 C6.87646969,4.31783011 6.64421691,3.38856379 6.51899403,2.44702901 C6.44160526,1.89530739 5.96482526,1.4861106 5.3971965,1.49201247 L2.60462092,1.49201247 C2.56901882,1.49201247 2.5343937,1.49338795 2.50722349,1.49551816 C1.8934385,1.5508551 1.44143378,2.09194321 1.49568375,2.69172229 C1.78814071,5.44599619 2.7271616,8.09273871 4.23999369,10.4219723 C5.6095606,12.5734613 7.43744815,14.3978573 9.59907065,15.7686625 C11.9183396,17.2701794 14.5581809,18.2074164 17.3088657,18.5049336 C17.3307264,18.5074037 17.3566643,18.5084924 17.3969178,18.5078259 C18.01251,18.5058733 18.5099295,18.0055789 18.507319,17.3890954 L18.507319,14.6029406 Z M19.9994366,17.3859291 C20.0055431,18.8243265 18.8414379,19.9951598 17.4133338,19.9995981 C17.3216566,20.0013245 17.2307091,19.9975069 17.1448525,19.9877974 C14.1657886,19.6655877 11.3031469,18.6492487 8.79399029,17.0247573 C6.45327476,15.5404216 4.4684525,13.5593906 2.98490463,11.2287877 C1.34780923,8.70829411 0.329160436,5.83711083 0.0107711867,2.83777294 C-0.119008753,1.40530179 0.93884824,0.138956971 2.38083336,0.00899132828 C2.45519596,0.00305377977 2.52944531,0.000104237536 2.60462092,0.000104237536 L5.38938494,0.000145127807 C6.69837111,-0.0135592387 7.81500618,0.944793635 7.99737527,2.24507915 C8.10854125,3.08079475 8.31356498,3.90111495 8.60800765,4.69023342 C8.96712103,5.64197165 8.73749618,6.71636309 8.01764797,7.44093999 L7.24727596,8.20913226 C8.39144746,10.040847 9.94001373,11.586159 11.7755936,12.7278688 L12.5506025,11.9543502 C13.2738235,11.2401243 14.3473371,11.0118988 15.2981135,11.3687107 C16.0871482,11.6623821 16.9100737,11.8666963 17.7568413,11.9789263 C19.0637892,12.1626732 20.0265085,13.2934587 19.9994433,14.6112331 L19.9994366,17.3859291 Z"></path>
</svg>
