<svg xmlns="http://www.w3.org/2000/svg" width="50" height="50" viewBox="0 0 50 50">
  <path fill-rule="evenodd" d="M25,50 C11.1928813,50 0,38.8071187 0,25 C0,11.1928813 11.1928813,0 25,0 C38.8071187,0 50,11.1928813 50,25 C50,38.8071187 38.8071187,50 25,50 Z M24.6293468,10.0703492 C19.6625274,10.0703492 15.1046871,13.6084194 15.1055238,17.5999811 C15.1055238,19.2276975 16.328612,20.0819684 17.7535124,20.0819684 C21.6988882,20.0819684 19.6643682,14.7108555 24.8741653,14.7108555 C27.3188357,14.7108555 28.7802162,16.013765 28.7802162,18.2107722 C28.7802162,22.2011625 21.6585593,23.2984111 21.6585593,28.1452477 C21.6585593,29.4473204 22.5131648,30.8712167 24.2635415,30.8712167 C26.9500183,30.8712167 26.6237053,28.8723401 27.6019751,27.4492805 C28.9040478,25.537588 34.9692872,23.5020639 34.9692872,18.2097682 C34.9692872,12.4698378 29.8401479,10.0703492 24.6293468,10.0703492 Z M24.426698,33.5136831 C22.5956634,33.5136831 21.0882645,35.0192414 21.0882645,36.8521167 C21.0882645,38.6888408 22.5956634,40.1915543 24.426698,40.1915543 C26.2587367,40.1915543 27.7651316,38.6870001 27.7651316,36.8521167 C27.7651316,35.0182373 26.2560592,33.5136831 24.426698,33.5136831 Z"/>
</svg>
