<svg xmlns="http://www.w3.org/2000/svg" xmlns:xlink="http://www.w3.org/1999/xlink" width="50" height="50" viewBox="0 0 50 50">
  <defs>
    <path id="questionmark-circle-a" d="M25,45 C13.954305,45 5,36.045695 5,25 C5,13.954305 13.954305,5 25,5 C36.045695,5 45,13.954305 45,25 C45,36.045695 36.045695,45 25,45 Z M24.7034774,13.0562793 C20.7300219,13.0562793 17.0837496,15.8867355 17.084419,19.0799849 C17.084419,20.382158 18.0628896,21.0655747 19.2028099,21.0655747 C22.3591106,21.0655747 20.7314945,16.7686844 24.8993322,16.7686844 C26.8550686,16.7686844 28.024173,17.811012 28.024173,19.5686178 C28.024173,22.76093 22.3268474,23.6387289 22.3268474,27.5161981 C22.3268474,28.5578563 23.0105318,29.6969734 24.4108332,29.6969734 C26.5600146,29.6969734 26.2989642,28.0978721 27.0815801,26.9594244 C28.1232383,25.4300704 32.9754297,23.8016511 32.9754297,19.5678145 C32.9754297,14.9758703 28.8721184,13.0562793 24.7034774,13.0562793 Z M24.5413584,31.8109465 C23.0765307,31.8109465 21.8706116,33.0153931 21.8706116,34.4816934 C21.8706116,35.9510727 23.0765307,37.1532434 24.5413584,37.1532434 C26.0069893,37.1532434 27.2121053,35.9496001 27.2121053,34.4816934 C27.2121053,33.0145899 26.0048474,31.8109465 24.5413584,31.8109465 Z"/>
  </defs>
  <g fill="none" fill-rule="evenodd">
    <use fill="#000" xlink:href="#questionmark-circle-a"/>
  </g>
</svg>
