<svg xmlns="http://www.w3.org/2000/svg" width="50" height="50" viewBox="0 0 50 50">
  <path d="M39.535,32.3212895 C39.457,31.0092895 38.379,29.9672895 37.049,29.9672895 C37.038,29.9672895 37.027,29.9702895 37.015,29.9712895 C36.849,28.7512895 35.814,27.8072895 34.549,27.8072895 C33.167,27.8072895 33.049,29.0052895 32.589,30.3082895 C32.49,30.5902895 32.398,30.8772895 32.314,31.1622895 L32.314,21.5392895 L33.578,22.5402895 C33.845,22.7532895 34.163,22.8542895 34.479,22.8542895 C34.907,22.8542895 35.331,22.6652895 35.616,22.3042895 C36.115,21.6762895 36.01,20.7632895 35.381,20.2652895 L27.084,13.6892895 C25.916,12.7622895 24.163,12.7722895 23.004,13.7072895 L14.879,20.2732895 C14.256,20.7772895 14.159,21.6912895 14.663,22.3142895 C15.167,22.9382895 16.082,23.0352895 16.704,22.5302895 L17.776,21.6622895 L17.776,31.4692895 C17.669,31.0832895 17.549,30.6902895 17.413,30.3062895 C16.953,29.0032895 16.835,27.8062895 15.453,27.8062895 C14.187,27.8062895 13.152,28.7492895 12.986,29.9702895 C12.975,29.9692895 12.964,29.9662895 12.952,29.9662895 C11.621,29.9662895 10.544,31.0082895 10.466,32.3202895 C9.635,32.4592895 9,33.1772895 9,34.0472895 C9,35.0182895 9.787,35.8052895 10.757,35.8052895 C11.346,35.8052895 18.788,36.0082895 19.206,36.0082895 L30.883,36.0082895 C31.285,36.0082895 38.662,35.8052895 39.243,35.8052895 C40.214,35.8052895 41.001,35.0182895 41.001,34.0472895 C41.001,33.1772895 40.366,32.4592895 39.535,32.3202895 L39.535,32.3212895 Z M24.457,32.9222895 L22.363,32.9222895 L22.363,28.9642895 L24.457,28.9642895 L24.457,32.9222895 Z M24.457,27.6072895 L22.363,27.6072895 L22.363,26.1342895 C22.363,25.0092895 23.275,24.0972895 24.4,24.0972895 L24.457,24.0972895 L24.457,27.6062895 L24.457,27.6072895 Z M27.908,32.9222895 L25.815,32.9222895 L25.815,28.9642895 L27.908,28.9642895 L27.908,32.9222895 Z M27.908,27.6072895 L25.815,27.6072895 L25.815,24.0982895 L25.871,24.0982895 C26.996,24.0982895 27.908,25.0102895 27.908,26.1352895 L27.908,27.6072895 Z"/>
</svg>
