<svg xmlns="http://www.w3.org/2000/svg" width="32" height="32" viewBox="0 0 32 32">
  <path fill-rule="evenodd" d="M20.9487274,17.5307506 C20.9584566,17.5112957 20.9709605,17.4918409 20.9792988,17.4709987 C20.9890244,17.4487656 20.9931936,17.4251416 21.000141,17.4029085 C21.0057011,17.3820663 21.0140394,17.3612205 21.018205,17.3403783 C21.0223741,17.3181452 21.023765,17.2945212 21.0265433,17.2709007 C21.0293215,17.2486676 21.0321033,17.2264345 21.0321033,17.2042014 C21.0321033,17.1819683 21.0293215,17.1597352 21.0265433,17.1375021 C21.023765,17.1138781 21.023765,17.091645 21.018205,17.0680245 C21.0140394,17.0471823 21.0070884,17.0263366 21.000141,17.0054944 C20.9931936,16.9818704 20.9876371,16.9596373 20.9792988,16.9374042 C20.9709605,16.916562 20.9598439,16.8971071 20.9487274,16.8776522 C20.9376108,16.85681 20.9278852,16.8345769 20.9139904,16.8137312 C20.9014829,16.7942763 20.8848063,16.7762124 20.8695242,16.7581484 C20.8570167,16.7414754 20.8459002,16.7247988 20.8306145,16.7095131 L12.1902964,7.81627125 C11.9165518,7.53418829 11.4663154,7.52724089 11.1842574,7.80237645 C10.9021744,8.0761211 10.895227,8.52635748 11.170359,8.80841553 L19.3286633,17.2029243 L11.1689361,25.5999233 C10.8951914,25.8820062 10.9021388,26.3322284 11.1828344,26.6059624 C11.3217896,26.7407519 11.5010453,26.8074512 11.6788995,26.8074512 C11.8637117,26.8074512 12.0499255,26.7351954 12.1888735,26.5920676 L20.8291915,17.6988257 C20.8430863,17.68354 20.8542029,17.6668634 20.8681013,17.6501904 C20.883387,17.6321264 20.90006,17.6140625 20.9125675,17.5946076 C20.9264623,17.5737619 20.9375788,17.5515323 20.9486954,17.5306866 L20.9487274,17.5307506 Z"/>
</svg>
