<svg xmlns="http://www.w3.org/2000/svg" width="32" height="32" viewBox="0 0 32 32">
  <path fill-rule="evenodd" d="M11.0512726,17.5307506 C11.0415434,17.5112957 11.0290395,17.4918409 11.0207012,17.4709987 C11.0109756,17.4487656 11.0068064,17.4251416 10.999859,17.4029085 C10.9942989,17.3820663 10.9859606,17.3612205 10.981795,17.3403783 C10.9776259,17.3181452 10.976235,17.2945212 10.9734567,17.2709007 C10.9706785,17.2486676 10.9678967,17.2264345 10.9678967,17.2042014 C10.9678967,17.1819683 10.9706785,17.1597352 10.9734567,17.1375021 C10.976235,17.1138781 10.976235,17.091645 10.981795,17.0680245 C10.9859606,17.0471823 10.9929116,17.0263366 10.999859,17.0054944 C11.0068064,16.9818704 11.0123629,16.9596373 11.0207012,16.9374042 C11.0290395,16.916562 11.0401561,16.8971071 11.0512726,16.8776522 C11.0623892,16.85681 11.0721148,16.8345769 11.0860096,16.8137312 C11.0985171,16.7942763 11.1151937,16.7762124 11.1304758,16.7581484 C11.1429833,16.7414754 11.1540998,16.7247988 11.1693855,16.7095131 L19.8097036,7.81627125 C20.0834482,7.53418829 20.5336846,7.52724089 20.8157426,7.80237645 C21.0978256,8.0761211 21.104773,8.52635748 20.829641,8.80841553 L12.6713367,17.2029243 L20.8310639,25.5999233 C21.1048086,25.8820062 21.0978612,26.3322284 20.8171656,26.6059624 C20.6782104,26.7407519 20.4989547,26.8074512 20.3211005,26.8074512 C20.1362883,26.8074512 19.9500745,26.7351954 19.8111265,26.5920676 L11.1708085,17.6988257 C11.1569137,17.68354 11.1457971,17.6668634 11.1318987,17.6501904 C11.116613,17.6321264 11.09994,17.6140625 11.0874325,17.5946076 C11.0735377,17.5737619 11.0624212,17.5515323 11.0513046,17.5306866 L11.0512726,17.5307506 Z"/>
</svg>
