<svg xmlns="http://www.w3.org/2000/svg" xmlns:xlink="http://www.w3.org/1999/xlink" width="50" height="50" viewBox="0 0 50 50">
  <defs>
    <path id="star-a" d="M25.0078704,6 C26.0706196,6 31.185733,18.4872943 31.185733,18.4872943 C31.185733,18.4872943 45,19.2359921 45,20.4896982 C45,21.7432206 35.0039352,30.209547 35.0039352,30.209547 C35.0039352,30.209547 38.1886851,43.1047044 37.3637797,43.9343872 C36.5386901,44.7638863 25.0078704,37.4543043 25.0078704,37.4543043 C25.0078704,37.4543043 13.547557,44.6077928 12.6519612,43.9343872 C11.7565494,43.2607979 15.0118056,30.209547 15.0118056,30.209547 C15.0118056,30.209547 4.53986927,21.4510503 5.01574086,20.4896982 C5.49161245,19.5281624 18.8300078,18.4872943 18.8300078,18.4872943 C18.8300078,18.4872943 23.9451212,6 25.0078704,6"/>
  </defs>
  <g fill="none" fill-rule="evenodd">
    <use fill="#000" xlink:href="#star-a"/>
  </g>
</svg>
