<svg xmlns="http://www.w3.org/2000/svg" xmlns:xlink="http://www.w3.org/1999/xlink" width="50" height="50" viewBox="0 0 50 50">
  <defs>
    <path id="star-a" d="M20.0078704,0 C21.0706196,0 26.185733,12.4872943 26.185733,12.4872943 C26.185733,12.4872943 40,13.2359921 40,14.4896982 C40,15.7432206 30.0039352,24.209547 30.0039352,24.209547 C30.0039352,24.209547 33.1886851,37.1047044 32.3637797,37.9343872 C31.5386901,38.7638863 20.0078704,31.4543043 20.0078704,31.4543043 C20.0078704,31.4543043 8.54755704,38.6077928 7.65196118,37.9343872 C6.75654941,37.2607979 10.0118056,24.209547 10.0118056,24.209547 C10.0118056,24.209547 -0.460130734,15.4510503 0.015740858,14.4896982 C0.49161245,13.5281624 13.8300078,12.4872943 13.8300078,12.4872943 C13.8300078,12.4872943 18.9451212,0 20.0078704,0"/>
  </defs>
  <g fill="none" fill-rule="evenodd" transform="translate(5 6)">
    <mask id="star-b" fill="#fff">
      <use xlink:href="#star-a"/>
    </mask>
    <use fill="#000" xlink:href="#star-a"/>
    <g fill="#000" mask="url(#star-b)">
      <rect width="62" height="61" transform="translate(-11.25 -12.258)"/>
    </g>
  </g>
</svg>
