<svg xmlns="http://www.w3.org/2000/svg" xmlns:xlink="http://www.w3.org/1999/xlink" width="50" height="50" viewBox="0 0 50 50">
  <defs>
    <path id="times-a" d="M38.9860056,15.9088838 L29.8962228,24.9995 L38.9860056,34.0897828 C40.3379981,35.4422753 40.3379981,37.6334298 38.9860056,38.9859223 C38.3103427,39.6615852 37.424681,39.9995833 36.5395192,39.9995833 C35.6526908,39.9995833 34.7668624,39.6620852 34.0916995,38.9859223 L24.9999167,29.8946395 L15.9088005,38.9859223 C15.2333043,39.6614185 14.3474758,39.9994167 13.4614808,39.9994167 C12.575819,39.9994167 11.6906573,39.6620852 11.0144944,38.9859223 C9.66250187,37.6339298 9.66250187,35.4427753 11.0144944,34.0897828 L20.1041105,24.9995 L11.0139944,15.9088838 C9.66200188,14.5568914 9.66200188,12.3652369 11.0139944,11.0132444 C12.3658202,9.66225188 14.5559747,9.66225188 15.9083005,11.0132444 L24.99975,20.1038605 L34.0905328,11.0132444 C35.4430253,9.66225188 37.6336798,9.66225188 38.9851723,11.0132444 C40.3379981,12.3652369 40.3379981,14.5567247 38.9860056,15.9088838 Z"/>
  </defs>
  <g fill="none" fill-rule="evenodd">
    <use fill="#000" fill-rule="nonzero" xlink:href="#times-a"/>
  </g>
</svg>
