<svg xmlns="http://www.w3.org/2000/svg" xmlns:xlink="http://www.w3.org/1999/xlink" width="50" height="50" viewBox="0 0 50 50">
  <defs>
    <path id="times-circle-a" d="M27.7742739,25.079013 L31.8171652,29.1219043 L29.1219043,31.8171652 L25.079013,27.7742739 L21.0361217,31.8171652 L18.3408608,29.1219043 L22.3837521,25.079013 L18.3408608,21.0361217 L21.0361217,18.3408608 L25.079013,22.3837521 L29.1219043,18.3408608 L31.8171652,21.0361217 L27.7742739,25.079013 Z M25,45 C13.954305,45 5,36.045695 5,25 C5,13.954305 13.954305,5 25,5 C36.045695,5 45,13.954305 45,25 C45,36.045695 36.045695,45 25,45 Z M25,39.2857143 C32.8897821,39.2857143 39.2857143,32.8897821 39.2857143,25 C39.2857143,17.1102179 32.8897821,10.7142857 25,10.7142857 C17.1102179,10.7142857 10.7142857,17.1102179 10.7142857,25 C10.7142857,32.8897821 17.1102179,39.2857143 25,39.2857143 Z"/>
  </defs>
  <g fill="none" fill-rule="evenodd">
    <use fill="#000" xlink:href="#times-circle-a"/>
  </g>
</svg>
