<svg xmlns="http://www.w3.org/2000/svg" xmlns:xlink="http://www.w3.org/1999/xlink" width="50" height="50" viewBox="0 0 50 50">
  <defs>
    <path id="times-a" d="M19.0843017,25 L6.5043827,12.420081 C5.83187243,11.7475707 5.83187243,10.6470863 6.5043827,9.974576 L9.974576,6.5043827 C10.6470863,5.83187243 11.7475707,5.83187243 12.420081,6.5043827 L25,19.0843017 L37.579919,6.5043827 C38.2524293,5.83187243 39.3529137,5.83187243 40.025424,6.5043827 L43.4956173,9.974576 C44.1681276,10.6470863 44.1681276,11.7475707 43.4956173,12.420081 L30.9156983,25 L43.4956173,37.579919 C44.1681276,38.2524293 44.1681276,39.3529137 43.4956173,40.025424 L40.025424,43.4956173 C39.3529137,44.1681276 38.2524293,44.1681276 37.579919,43.4956173 L25,30.9156983 L12.420081,43.4956173 C11.7475707,44.1681276 10.6470863,44.1681276 9.974576,43.4956173 L6.5043827,40.025424 C5.83187243,39.3529137 5.83187243,38.2524293 6.5043827,37.579919 L19.0843017,25 Z"/>
  </defs>
  <g fill="none" fill-rule="evenodd">
    <use fill="#000" xlink:href="#times-a"/>
  </g>
</svg>
