<svg xmlns="http://www.w3.org/2000/svg" width="50" height="50" viewBox="0 0 50 50">
  <g fill="none" fill-rule="evenodd">
    <path stroke="#000" stroke-width="3" d="M44,25 C44,35.4934317 35.4934317,44 25,44 C14.5065683,44 6,35.4934317 6,25 C6,14.5065683 14.5065683,6 25,6 C35.4934317,6 44,14.5065683 44,25 Z"/>
    <path fill="#000" d="M29.03449,25 L36.4879166,32.4534266 C37.1706945,33.1362045 37.1706945,34.2534906 36.4879166,34.9362685 L34.9362685,36.4879166 C34.2534906,37.1706945 33.1362045,37.1706945 32.4534266,36.4879166 L25,29.03449 L17.5465734,36.4879166 C16.8637955,37.1706945 15.7465094,37.1706945 15.0637315,36.4879166 L13.5120834,34.9362685 C12.8293055,34.2534906 12.8293055,33.1362045 13.5120834,32.4534266 L20.96551,25 L13.5120834,17.5465734 C12.8293055,16.8637955 12.8293055,15.7465094 13.5120834,15.0637315 L15.0637315,13.5120834 C15.7465094,12.8293055 16.8637955,12.8293055 17.5465734,13.5120834 L25,20.96551 L32.4534266,13.5120834 C33.1362045,12.8293055 34.2534906,12.8293055 34.9362685,13.5120834 L36.4879166,15.0637315 C37.1706945,15.7465094 37.1706945,16.8637955 36.4879166,17.5465734 L29.03449,25 Z"/>
  </g>
</svg>
