<svg xmlns="http://www.w3.org/2000/svg" xmlns:xlink="http://www.w3.org/1999/xlink" width="50" height="50" viewBox="0 0 50 50">
  <defs>
    <path id="x-a" d="M43.6480075,12.8785118 L31.5282971,24.9993333 L43.6480075,37.1197104 C45.4506642,38.9230338 45.4506642,41.8445731 43.6480075,43.6478964 C42.7471236,44.5487803 41.5662413,44.9994444 40.3860256,44.9994444 C39.2035878,44.9994444 38.0224832,44.5494469 37.122266,43.6478964 L24.9998889,31.526186 L12.8784007,43.6478964 C11.977739,44.5485581 10.7966345,44.9992222 9.61530769,44.9992222 C8.43442536,44.9992222 7.2542097,44.5494469 6.35265915,43.6478964 C4.5500025,41.8452397 4.5500025,38.9237004 6.35265915,37.1197104 L18.4721474,24.9993333 L6.35199249,12.8785118 C4.54933584,11.0758551 4.54933584,8.15364915 6.35199249,6.35099249 C8.15442692,4.54966917 11.0746329,4.54966917 12.877734,6.35099249 L24.9996667,18.471814 L37.1207104,6.35099249 C38.9240338,4.54966917 41.8449064,4.54966917 43.6468964,6.35099249 C45.4506642,8.15364915 45.4506642,11.0756329 43.6480075,12.8785118 Z"/>
  </defs>
  <g fill="none" fill-rule="evenodd">
    <use fill="#000" fill-rule="nonzero" xlink:href="#x-a"/>
  </g>
</svg>
